<mxfile host="65bd71144e">
    <diagram id="juvzLWzAricfhHOn2Ggx" name="Page-1">
        <mxGraphModel dx="894" dy="436" grid="1" gridSize="10" guides="1" tooltips="1" connect="1" arrows="1" fold="1" page="1" pageScale="1" pageWidth="850" pageHeight="1100" math="0" shadow="0">
            <root>
                <mxCell id="0"/>
                <mxCell id="1" parent="0"/>
                <mxCell id="2" value="" style="shape=image;verticalLabelPosition=bottom;labelBackgroundColor=default;verticalAlign=top;aspect=fixed;imageAspect=0;image=data:image/png,iVBORw0KGgoAAAANSUhEUgAAAUoAAADpCAYAAABC1n7xAAAAAXNSR0IArs4c6QAAAARnQU1BAACxjwv8YQUAAAAJcEhZcwAADsMAAA7DAcdvqGQAADTISURBVHhe7Z0LbBTXvf+/9x9UmhDWxrDGJPG1CdsHDiE4kFATAqXLSrbghhtsQA1tkqoYBxWqPpLGBYNQcFzn0YcKEXFN1TwKFWCTSwqyJcelpBSXBGJIeFS3C5iSh+0Fs15wXiK6/3NmzszOzM7szHofXtu/jzSw58zO7DzW3/39zu/M7/cfeXl5/weCIAjCkv8n/icIgiAsGIRCWYvvtp7Hemk5gRKf6E4IXtS1PodWadmAmoTuW0/5xgA6XvhMtOyYh/FrmpB/t2haMeEp3LG+CTOXrxAdznnmhQt4Y6VoEAShYxAKZSVe9U7EJu9OdIiexNGKCu8T8Hqb4Rc9SWFlL9Z940vY+YORokMgCd0WuEQzlTy5ZxyyFwewwys6CIJQIdc75XyGNxYH4d+TgSdFT8L4aANObSrBke3bREcMtI7C1D1fwqyKPpSLLoIgZKIHc1a1YH2ZRzSAYFsNNlfVyw3fdqypnIVMuQX4d2JTRaX8mm837RjqAyUoL5LtI9227E+xZM9azMgQTWa/7fP60C5aUfetwl3wElyqvQtNLaJLkFN9Qv3ciH07grvg9+Fy7VNYa9j3Y3XPYYl6Sa7iiO49fLtihK8YR/8e7nKvc7uQr7MmVyB/fSnGi1aYPnRsK0PXR9z1/hlu/HsjsEB531mc2bQaIek14FrehMm3y6+vvf0sTjUfkBsKd2/BzAWTRMPiPfgCO3a9j+w38jD/d6JL5RE83/gAJp5/HaWPvyz6CGJ4YG1RSiKZjaO13M2Vl7DQMZFiQhZsUNYxN9izDGuqNbYIa5e7m+T1DX5kFi1FoViVU70aMwJM/MR+N+mEzMG+o8GOu7yom4mjvH19WzYW7tmOHLE6HrzVG7DE3Y4ayT1/AjVtwMzK1XhMrH+sjomkv1la561txzXW52/QCukXmFfwMfwnDC43tqGDW4Lb3mbbcAFkr6WFi6R4C2P8gmJ8so33P4uO4CTkFs8Ta4DQdnmbM+dEhw4mxAtymOgq+y0xEUnODThw+iZ47nI6dkoQwwMLoWQWn8/DrMAtEdYaJ6e6BPm9h9GyVXTwcUMuhgXfDAsSW1+vWIFbj6ED2cjRBkc801Xh1OJo31EonOZBR0NYeDurmtCRMQWFcQdmvFhaNBr+lh1oFT2tVTtwpDcPhat4y4tCZkr6j4u1LW/hVC87n1u19uV1ZLtuQvdZ0YyRrv2KcB5A8F99uHls2EK0ZxTG3RUWVivqP/wS4L5u4n6/jMdLS8maJIYlFkI5CeOYWxz8QLEgTQhcRKd4GSudVXdhn9+DhSJ6HWEt9nvf5chxA/llSlScL8uQL9bGz1VctozyXMBlJoyeaSIa4rsXd2RcxamDmg28TCjFy9TCLFZmreKen2Emj4pHCxidHYGQ67ph+IAghjcWQnkWl9gffVTcuToLL+fW2CSgvSLsWgeL1urFMs59d6huu7JEjmP2j9EYq1OQPIzVjLP+O8D+8xTL04sqmb3ctkM/xtk6At3iZcpRAj1sOf52DiZbieWk63CFRiQ36k8QgwwLoaxH++kQs8xaTN3jzoMnEcyYBZ/kcnJq4StyoaNleT8sQb0ox7fv6MetMncdXmlsROMf1uF+0WVPK9qZenh8DzEnW8ZbfR88ve3YxYcJWH+J5wJ2i/FLviyqMsoNE8rQx8i28pg/+jf6mDWfZTdfMk4+67a+kuW3fM4s+hHsShrhwZxYrxlBDA2iRr310ePoUW/dOh4I8nWjfrEibtoItTHizTBGte32rYnEy4RwVBP9Nh63NF6qHguDC+UP78ao0Dv4zfeext9EN1atRmtZnmgo6KPW+qg3F8YteFG09OtkrrXV6QRTinoX3ISnl44yESOGLjptjHqXoOMdec3I4gZMG9sspgKZR83VyLYh4h3er2iqRIt63491f/gR7nb14Z3fPoynD4pughgG0LPeiYJZlHsrs9CkEU65z4NTuilEn+GNZibZe8zEaIBZ2YuO+SMsRfyR5xvxwFjDjwtBDAOspwcRseHJws3ipYJ3rof19eDfuvHRkZi/JxOexb14RvSkBd4+vLv4cxyuMxHJR59HI3O7SSSJ4QpZlAkk0vXWu+ZazCeeDxz8We/pJ9LQyiWINICEkiAIwgZyvQmCIGwgoSQIgrCBhJIgCMIGEkqCIAgbSCgJgiBsGIRCORxLQSiIc483bRx/8qnV5jHPGODn8u7GL0SLIIYeg1Aoh3ApiEFK/UYXur/xPtXcIYYs5HqnnHhKQYgfCe1z62nBSMx/jtfcSbOnjQgiQVApCFNSXApCOt9sHDIepya5CLTnFHE9+LWYjpO13ZitXDdjIpCIZCL661JYdx4L1dXhJCO8f3ZAe+848v0b1zIRr6oJluWne0oCt2HqxhtETxjpOfGJ5/F66eOg1L/EYMPaopT+sKgUhJaklYJouYigMQO8AZ7sWD4fpUqOEQ8WSmIrrpk2VR0XYu29rD3MPi8M/2FZ6GbCql4zYEalPIb5USCETLezTOpPnsiEq+BTk+zoBDG4sRBKKgURSTJLQWhycmoCLVLCYsfZ3rkVqJx3JU76gcxbZckqLJsFWNxL/sNkzPfZWbUFR3s9mMLOq/ODcKphbl3KP1g8A34Il4wDuVGyo7/8eClKyZokBikWQkmlIMxJVimIenQGXBjHFCZnbjaCbBPlRyUY6GeBnZgwET0FfzeCUsb5Wkxh7npQtS670WkUXimD++fIpdrgxBDDQiipFIQ5ySsFIbm4t9aisAA42dCNcXPLMcHtiv5jlTBkkQ4j/1BK8GGBjGxMWDUdmYFdOAnmCfhykdnbjYi8v9IPwZdwUTG5CWKIYCGUVAoikhSUgkAuxgWOoZ2JEwqWYoo7iqUXA5IIq0MX8hiwGigTbno+c/mVH6fI4Q/+Y8V+Cg7Ws31lY0pZNhNNE6s/Sr0dHsxpbHwF6+aKDoIYRFgGc7h7LAVCVBdW4yIz0dpcexiZqou7DJltNboIqDU8Yhre5/rWtVJgRw0U2e2bB5lEfz6zhGZU8tfhiedmx+14gjYvBSFNNueR69GYWamfeP5ixRPYHSjEWjEpfW1RD3YvFmOWLTvQ5M/DErFOWfZWa001UTd7fl9EwIOPBWYWzQKO83FdJl4BD/IzFPc2fM2kyLdnmXxedbV8pS3SmCNmoVy6HnymgH4OKrfu9wWU9fwzurFPjZjzHzIPZhR0MwGXf8gyPR7TIYFn7goidPrLptnRz13uY/+OwtdmUcUdYvBB+SgTxVAoBREPPEP6E9fRVGwxP5RnSf+vbKq3QwxKLC1KIkYGeymIuGDi/8QldJtOohfVG0kkiUEMWZQJZDCXgogHfi5rkGU60ZwghgIklARBEDaQ600QBGEDCSVBEIQNJJQEQRA2kFASBEHYQEJJEARhwyAUSp57UX6CZPiVghi88KlTybimVIaCSAWDUCipFIQZshDplzr1efkkw59Aag3n5UwlVIaCSAXkeqeceEpBROdaW52akIMvFY6evU8N/Dl5rzcyY3z8UBkKIvlQKQhTUlwKgm1Rs+ch4HQPZhblsUNuxm4US5/jb2CCh9VoLYP+KR+ewEPTx4+rJFBnkrGIwd/r60GNksDDcH48c/sPsQNN7gr13KTP1Qqt9Hns2ARclBdV5ZmcL0dzztLz7oXi8U6zJ5UM16y33XCck9Fe24MSZR+69WGsy1DwRygfwMTzr6P0cUobTPQPa4uSSkFEkLRSEBKjMbOAiRnfzlMsiV5N21U5EfDWM0zulUzqMo9N44J6xvTxyP5wc1GF9JnyebHPZQKn5t+VRDKLiV/YWpUFWQxVSOeqTTGnOeeWHVikvscI/4EoRo5qCdfhCPuWrK3TZv7NwxIp2Qhf3wx/RiGWmgwpUBkKIplYCCWVgogkmaUgZML7voAmnWXYil2KaErwz2JWW4PeruJiFx6jjDFwwgResUZbD/pxLSMLX5FaTMx8ecyCNCQhTgSrijEzQ3uufqzdyn8oJmvGO7l1qlihck5Q/TUVWJaheBmPl5aSNUnEhYVQUikIc5JVCsIeSbwUAVk1mVmuf48QLv0YpdaSjQc5i3vnB5YnHh+9PfiXeBkXVIaCSCIWQkmlIMxJXikIWyQLVbZeudutWq5JR/4BSBqq5SowSVfnCCpDQSQRC6GkUhCRpKIURDSYW9pygX3+BpS4xWfGgtaV3mMWgLHCj9bTzO0vizL9p6WL3Rv9GKojxNhriZoFXnHzm2Mfe7UsQyHyYcZ0rwlCj2Uwh0pBpLYUhCO4sGSMBk6/JcYyHbJ1C3arx1aBsS2xzRNtrXoKNW1ZunPTn1crKhqYiJcp68PXjAfApD4paq0cgyK6PBjUjE51bLUCMwPhsdJYsC5DcQ5XeCl019cwh+r1EP2E8lEmCmkaTLJLQVhPWxrW2JSh4IXNHhj7Dn7zvafxN9FHELFgaVESMZKCUhDy9KPIIM7wJkoZCl6nh7ndJJJEvJBFmUCSVQpC3a/FZOvhDJWhIFIBCSVBEIQN5HoTBEHYQEJJEARhAwklQRCEDSSUBEEQNpBQEgRB2DAIo948D6WS6CKEoyb5KPuPNjeiMddkYrGeHmTI1WmaizOSwrrzWCimJulzf3KSec3ihU/A/xTHLCaLE0Q6MAgtyqFdCkLK1YnDqFcSejgQSY6SZGSf6YFHu2bKI6Xa5+O5sCa6HpEVI7HzH59j2a5+PtZJECmAXO+UE70UxARmZQZP/7XfKez6S7A3G1NiTWqRIOo3urEzcAlrqEgYkaZEF0o1AYW86FKh8XINmnXr62rFCgbfjrV5SQbTbSMSYxiy/UTbtwO0nxux7zjRF/EyJsflrrt2feR7yjeG4DmbY/Gct5xPMxL5en1XI2TSOcZ4XaIRPH0Smey6mycPMdwvNckI72eWZ7X4nrDj4UMA/HXEsSrbWtyPJ/eMA75xzfyxTpHt6ZWfU/4fYmCwFkoqBRFB8kpBcFeXi4g8NplZtFaISqrcX8YHy3EoYJ4JPqd6KbBVuR81OIpZWKLeDxdmFHSjvvYwguw+zQ7UsGseQv40IeJO70frl3EyFMR0qqZIpCEWQsksBSoFYSCZpSCUMUQmQmwbHoyRRSm1QZf2492YURZppXZW+TTHIef8zHSHk2qGc4X6cUgXRIrlftyAiwEg+xYT9/vg03i4tBQP/4LSWhADg4VQUikIcwauFERK2LoLR90mP2CGoZBwhUs7Yrsf/sBNcLmvixZBpA8WQkmlIMwZwFIQKYFbi9mYXZ0r2hx5KASqlcvdZ54J1zlO74fH/TFCgRGiRRDpg4VQUimISAa6FASQeav4MZHG/ZxadbHBXeNgwZRwTXWB6l0w63KJ4892eD8kvkAusz67PzRJl6bcr+cfER0EkVosgzlUCiKdSkHUo2nrYUAJ8vi6sU9n1SnBIHnSuRIMUu+XzTXTU4mTAZdGKCvRwoMzyv2ozIY/BovS8f3wfooprkwcM5sNcPB92RKfeCdIKomBgPJRJoqUlIIYujzzwgWUBG6zSMB7P9b94Ue4+/LrVJ+bGBAsLUoiRlJQCmKowh/nXOYeh80mInn/z19BYyOJJDGwkEWZQJJVCmJoQ896E+kPCSVBEIQN5HoTBEHYQEJJEARhAwklQRCEDSSUBEEQNpBQEgRB2EBCSRAEYQMJJUEQhA0klARBEDaQUBIEQdhAQkkQBGEDCSVBEIQNJJQEQRA2kFASBEHYQEJJEARhAwklQRCEDSSUBEEQNpBQEgRB2EBCSRAEYQMJJUEQhA0klARBEDaQUBIEQdhAQkkQBGEDCSVBEIQNJJQEQRA22Avl3Vswc32TWBowfoLoH2BGFjdIx5R/t+gg4uaxuufQ2roBNT7RkXA+wxvNAezwiqYE7+vFM6JlycpedDRfYIuD9xJEgrERyhXIXzAJXftLcGQTX8rQ9ZFYlVTmYfyaoSeCshDpl7pVYmWy8T2Eva2r8Zhopp4vsGNXJ7L/kYWHWkWXxEjs/MfnWLarD+WiJxImpouD8O/JQ35xBp4UvQSRKqIL5YT/xCicRc87op1GfNZcJol3RxoeWzSutdXB631CXSq2ihVpwIsV/JiewtoW0ZFAyjf2YBbGYfPGG0RPmPqNbuwMXMKajV+IHgPe68hGJo79TrQJIsX8R15e3v+J15Fwt3sBcGbTaoRElwyzNNcX45NtYQvTtbwJuZefxanmA/J2k4/j+OViTLtnlLT+2ttinYK070miEV7P9zP5dtGpIbw9/+xSjJd6+9ChOQYF/T607+GW6g+AhmbcuELZx1mT8zPDi7rWybjcloWZRaOZ4DXjVEExZmZcxZFaJi6e1WgtA3Z7t+BFsQVW6fu4RVkSqMOiKr+8XoO3egPWuv8Ob4Uwt7gFWJmFJmlbD2r2PARs/TvGVhazFueC/rMY0j7YsSn4G7gQ8+NWttEijpuLovRZhbhZ6o/cr349w98cPk5+jtPOoCZwn/rZ/MdAf47cvQ6h+zm3wZrU4O3Du09cR5OZxRhtHUGkAFOLUhn/k4VsEiYrY5TLV8hvcMLtpZg2tll22fefxc33lMIlVskimcMETHHpS1QRDW3n7WfREYTG5Q+vB7ahQ+prRJfo0cKPfXLW2zgutjv+NpC/Ykv4s5mNnL+Ci7zyOZOQWzxPrLMjDzO5mDVcwM1FxRjb8gR2+0fjjrlMhraegZ+tL9S40o9Ny2OickYvOv1mNGZW3ofLtdzqq8OR3jyUVIflTxbJHiZyRmu1FRW8XduOa5IIKus1lmPLDixS32OECS0TyU4muvJ2zfB7irFX89lgbUnk+XpxbXQu/spP4QndhANWIslp/TJOhoKYvlK0CSKNMBVKxa3lAidbXLLoHNm+TX6DE4JMrJT3v3OciVoObpQCQcyqu28SsxBfSMJ45wpMYBZs1983MBtG5rPmFyQxzNKMd3btVyzMAwj+qw83jw1bttFhVliD+Gvvbccundvcil1tV+GZpkQqvCj0aN4vuLmoQjNGGVvgxN+giJsfraev4mY3E2IJL5Yya87fYLAEE4C3+j54dOfKhJeLYcG97FMFbH2NYmFKPxhZ+E/NeZXf8jkQGIF60TbnBlwMANm3mLjfk67DFRrB9ksQA4N91DvhTMKNmcwh7ta44QmlD58kXICd0XrQj2ueybI1tWoyPP6/R4z36ccoEzQe6BvPfoau4nKylCTQxeSx/3jcH4tX0fEHboLLfV20GNzl5pHuu76M/KWjbISWIJLHAAjlWXzC3OrkMUpYrgqyMKeElrdwirnE3P3mbrf/eDzyEgMtXegUL5OCe3zYemR4b80Sr5zBBdAJXFBDzPJUaR2FqcV5yD/xKTqiRsUJIrnEIZRhQZLGBU0CMObI7u74BdpxQyMH8EkPMH5yDGOiEtvQc45td99TGCl6RhYXY3zwbXyUkui4n1mIF+DxbUCJ2+iaO0AVJHlcUA2e2NKKdv9ozFz1kE7QdEhiqh9DdYJkJWcUYqm6nXDzW3Y4tjLrP/wSO7frNkL3BXLdQPeHkVFxnB2BkOu6SUCKIFJDP4VyGzr2n2ViJwd5eNDmDBMop/Ax0ONv54SDRGy5wxBQCW1vRNftpZHr1QnwPGrNAzP8dXgiPA8Gnem5B9PEdtPu6cSZzeExy6TDx+gyRgOn34rJXW2t2oEjKMRaaezyPlxuMAusWPNixRPYHVC2N5ujKY8tesoix0d5IEjqk8Q5D0uk9WLOJQ/01LYjR92uGDltdbFNa/rdl+F3XcKyaIEa76eY4qIpQER6En16ENEP+HQcHp1O0PjjEKF8YwDrCm7C0xZjjc+8cAElgdsw1WSeJU0PIgaaARijHNo8VldsGsQZ7tRvzMJhmE8q5yK6zG0+GV2idQS68TlyLccVCCK5kEWZIPhk8iV8EI1PlVnsfPxueGE28Zz3fYpjdtYif9Z7MY8CZmInWZZEiiGhJAiCsIFcb4IgCBtMhXLixIniFUEQBEEWJUEQhA0klARBEDaQUBIEQdhAQhkLvu1Y03oe66WlBYWiOzHwierK0y/JLMcwD0/Pb8LWW0RTIhe//Mm38cd5LmD8Hfgje/3LO8WqeBH7e01aZuNR0a0wZ94CsY4tpbmid/DzaKlyzuK6RkO6RhbXZsUdmCPaKnfOZvtdgKrxyvUzbDv6Kbw2/yl8SzSJ+CGhjIWW5djsnYhNtYeR+LweIm8kz/coepJBxb0/w72hRqz6UHTYIf1RGv4Qzfqs6DqF7/zqT3hw+7voE11a3jywHw+y9b9ut0+dnDhcqFph9mPA+2UBipeXGtk5s/Pae0F0pJKrG9Acugc/vzfWXAmEFSSUw4lbtqDs1rNoeMuYV7QXV5hOdV3i/4TQhRCudItVQ5jx42wsvXSl+wr70enF+13sh+ZSLxC6AmOqhbq3nsVbrlKD50D0F9MJ53x60Pnz50VrYMipPoHyovAXuaNhIl4ViRjs1i3BFhxyr8VCkW5Gux4oR8metZiRIZrMftvn9aFdtKLtW4W74JXZOKTZTsawb/9ObKqoFA2nWD0rzvs1JR2MTwAZyzVIaMs6cJf7Z8g6XeLcmuRw69EH7P3VIbwkuiL6pLbiNodwbPt+VBvTz3P3cvkYvKHdjwbuQv4461082HhR9Aik7aZCLijCuHAo8j39gLvG83v24zsHtJYsH4KYiivi+KVjKgx/F861/Ak/fU80+DnPvIJf/xlYqRyfybGZfw5Dd804F/XXmGF5TZzCfhhbCnrwizc24C+iS+GR5xvxwMTzeL30cbws+ghr0tKilMWqmwkYc3PFoorVqhb9ugY/8stOoEQzppdZtBazAzXS+vq2EPKZsOWIdTnVqzEjwARM2V4rdg72HY3COiaS6r5rcNS9DGuqE5FFkdfMkbP2yAl/6+RMQ3XKw89s/apCQFnfwP09XhNHk/F89DwUjD6L47GIpBO4kPkymDjKruaDLb2YvtyhW24LEy4mQl1MoKR9MyE5lzfbfswvJozutmypcSH7cWEvEy/lvC7idp/BLXdNxY8l8Wfr+dBC3lRnbrvxmlkNS3BrMR4+PA7/6AJ4w2WUiH6ShkJZCx+z6DoajNYah1lsPg+CbbvC67b6sM/vgmeuRpCYJbe5Ss5R03nwJIIZ2dDl8vVMNwnEONy3JbWY4mHWqWpB1qOpxY/Mgm+qIt1vVvEiZhfQpBbs8mPt1vZwNnXfvbgj4ypOHRTrpXIMozFWm8BxdBZuvtqDf4lmbORikRJw4YvGEppTkA+0/y1sQb73Lo6FcnFnAoJBc+ZNxe2hd7FXseKY1fVTJlijJuVGBjhi5FxPCKOymOk/Phdfd7nw9QKt+DLxnJmLvvZ3wxbee4ew94Lxfdx6FlZg10X8M+TCmGxpRVQenT1Vf82Sxln0XB2FLBOhfPnxUpSSNemY9BNK9keYyb6Al6JENIIf9L8oQGfVXUz8PFgootdGi6/f+5aOO7xfaSlLYKrZ3igiJyXlFUXOOLwMBXO72zVDBt9yxSPX3C0U1o+wrhRuz3JhVKEmcv2TBZieSIPvSghvipdJIXsMs1gPoYuL73gXxmvG+6Qx22iEOvCmKnYhVG/TuOZpwQH8m51Cjstp8TzCivQTSvZHaBdRzrxVK27lyHGLlw5pr1Dc7p0IMjddK5bx7ZuPdyr7Fsvi5Ykp05CRha+IlxIeZiGKl3ws8jLz0tTCZWV5EYXG/hJKXrGIvnY5cq1dEiYYY1w663HOOHVwOS4Ut/bRrzJj8b2LeO9KPuYYrEF9sMeF28aIl6mCWbHxjcfOw3+yU+gMJas+1fAhDV3vSpxk7u6MVeFxxTD1aD8dQmbR0rDrvGopZmT4cUi42rFxFuFhoDj33fJX+HuZRVlXKzosePR5NDY2ovH5R0SHA0Qp3HB5Wg9qfHlSbXFJDLlrjnbUqEXLlFK1GpjbfY253zqxTQAv/S9zhQvvT8iUGiNvnu5An2sqFqlufC4WFbpw7sgpjZUpT/VR5hXGxJipmD9GtiDP9QBf/6qihMyKPctc88Kp4bHWO6cyS/ki3jAGZfqB5ParwwfyOKwarNIgz8WMZ7x3EnO7+5j7LZoaeDCnsfEVrJsrOoiopG3Uu7DuvBq15lhHvUM4WnsXmkSEWFrnbgpHm3URamPEm2GITNvuWxMRl9FGzSP3H2yrUcdLJbhQ/tdE4PzrKH1cM0K0arVkCerhARkl+m2Ievub4VVKxHLh3FOBmQZjy9+gFUw56l3w/rN48J8xWBjGCDfH2BclgmuMHMso6+VASoSrro0eG6Le3Ho1RpCVz9BFpe0Qx6zuT/kczWfrj90Qzefb86j3Nq1oK/Do+WwYy0iFj1173ny/72LM8jy8p73GDC6Ui/Iio+GOiRL1vv/nr+BHM0ah7+hv8PAv/iZ6CSvSViiJGOAi6+vRTxeShBea6UEM/oczE2h4bTXqRNeQQBI9HkU2mZY0bLGZDib9YGfjnd8+jKcPij7CkrScHkTEhln5WF4uNyIA9OFqNHwwCWVD5okN+dFLEslIrJ/AegTP86EfEsmYIItySGDieluWpOjnxHNi8MCf9Waew2YTl5voHySUBEEQNpDrTRAEYYOpRUkQBEGEIYuSIAjCBhJKgiAIG0goCYIgbLAUyvKNAXQ0X0DHrj44yZ1DEAQxVLEN5jzzwgWUBG7D1I03iB6CIIjhha3r/eSJTLjc10WLIAhi+EFjlARBEDaQUBIEQdhgL5RnRyA06VM8I5oEQRDDDXuhbB2Fqc+NQAmPgL/wmegkCIIYPtgL5cpedFQAm4vzkP+DkaKTIAhi+OBsjDIwAv0v50UQBDG4oWAOQRCEDSSUBEEQNtgK5TN3BRFirjdBEMRwxVIolWe9l03KRBM9vkgQxDCGEvcSBEHYQGOUBEEQNpBQEgRB2EBCSRAEYQMJJUEQhA0klARBEDaktVDmVJ/A+tbzYmlBoejnKOu+u0p0EHEzZ94CvPaT2XhUtNOLXPzyJ9/Ga6W5oh0mvY+bGAqkr1D6tmNJEXC0diI2efniQ7tYlVTY564xiLJMOUr2GAW7Ft9tPYESn2gSBDEkSV+h9GQjs/ck2ltE20Bn1V2SgL66VXSkiGBvNqYMZSs2dAXnxMv04iJ++qs/4cHGi6JtIG2PmxgKmE84v3sLZi4AzmxajZDoiuxbgfz1pRgvvWaca8SR7dvk1xOewh0rsnBx03FkKe8Jvo3jmzfAaUZL7lqXF5xE/eLl6BR9MtyKW4Z86XWIWZx3oUkrpqtasN7XjXomoEsqZyGT9/l3YlNFpbRatgzXYkaGaMKPfZK1qt2vFuUz5O3GnT6MzAJgt3RcfJsSXFKPwbDv3sPq8fPzWYKTCBbNYp/BPrMBWFjm0R8bP3beJ2FybgOGC1UrFmC6SzSZaO391SG8xF/eORuvzbyCX287hTelddxFnoor2/ejukuz/s/AyuVTMYq/5cIhjeAZ9h1617Cv2bhdei3QbeuER/B84wOYeP51lD7+sugjiNgwtyjfOY4uTELW3aLNGJmdw8TwuCqcruXT0LOpBEekpRFdt5ciX/N+sO0nry/GJ9vE+sx7MEG33pzCOnlMsryI/eVkzEK5GKNcU60Uza3Eq5IrvhMdoicCvl1lNg7x99UeRtBTorrHOdWrMSPAxEnah9alF/vl75fEU1lvEKsPluNQYAoKTdztnOqlwFZluxocxSwsUY8byCyawkSV9fd6sJCLuXRs02VXnrv8ZdnhoYaGbsyoNBsCSD1z5t2P6VeYQHGLTlqESDrFNRU/Xj4Gb/Btt7+LvrypqBK/sHPmTQX+rOx3P45hKlbOU1RTWJFi2XtBdBNEirFwvbfho7f7MH7yCtGeh8yvAB1/ERYjI7RdY22y9/cwv2dU9jzRlunaX4auj/gr8/VmtFfIQlHfxvbOLTIhWJurYsmIya0xIYAtf4W/14VxiqHGUcSpn7QfZyJWVitaYTqrfBpRrUf76RAy3ZNEm+FvUtd3tOgt5Zy5U4C2LeHtt+6SBNWRm/+tjdi1fz/2G5fN3xdvSAB5eXEES0I4tl2Ia9dF/DPkwphsaQXePHBItjwlQnjzbAijslRzPwG8jMdLS8maJOLCcozysxOnce32acwxYkyYh3E4jaAkegLuiq9vUpfJOv+IcxY974iXjND2EpxqPiBaSUY3tlmPpsXhsUw+trnPzyy6CEs1BriIuU3EVgoEyftVrWKHTHC7mMW5Vt12fat2eMCGv2zE0gULsMC4rPm9eEN8vHlgP7PmcrGIR53Z8kfV4nNIqANvasSwetuf8NP3RHP8Hfij2C9fflwY474JIgVYB3M+OoBLQdn9HnlXAfCvA+HxRT4GuWASsxgV17sEZwbRSLpitXL3PcjEKXax5NZiNmZXa6eq1OK7lbOYVVgj9i2s4hgIarZVFkfBqhRYlC81Ki7wIXQVLohdLE3JxS+XM9e7fb/qXv+6PbZrRhCpIErU+wCC/+pj7vIK5nZ34mKENdiHTxQLk1mXkRblYOAsLvWKlwotFxGEvcvbWdWEYMEUOVikIfiBGCKQpjc5F5P2435mUa7u31SjJFuUenpxxahlrjEi4MIDM4bgiwO6LokdMutyZcItSh7MaUTjH9bhftFDELESRSiZ+93cjL57SpHfEw7iSHy0ARfPjUL+CuF639eDjlRZlDwyLLmmPELtwoxK/trpXEZlLqTGvQ3sNIx/VuLVBj/yy5T3WO27EicDzF0WLd5uYRakul1lNvyxWJRbfSKAo3wuX9IhmMPFL+wav/aTBVJg5zsHxLm9d0jjli/AmCOHYpimcxF7mQV5u0/se/kY/DPhFuU5WdhdX8OcuXIPQcQK5aMkBg2Pln4b83v2h0XaIY8834gHxr6D33zvafxN9BFELES1KAkibWBu+fw8jZvuhEefRyNzu0kkiXghi5JIX/hkdV84YNbXHrs1SRCJgISSIAjCBnK9CYIgbCChJAiCsIGEkiAIwgYSSoIgCBtIKAmCIGxIS6FUUq3xpV9JKwhz+HSbnyxQU5yZIZdViP6edINKQRDJJi2FUklasc8vOhIMF2IzAZYFWvvIovzII9XliRMu0CvuwBzRJIjBBrneBoK9gGfuULZie/G+mvIsEp5SjSfQDeeIHCRQKQgiiaRtKQgOt/BmB2oik/bqSiYAHQ36dGRSGQlN5h5lvbFfRZRjkD/vMIJF2TgpZT4X5R9awvvX70NTroEf07RuHHXPwowM1t9wEp6yWcjUlIPQl7GQ06rFlpA4OXDXVZ8Hkifa1YpltHINZtszeMmGQy78USn/oENTSiLqvnkpiDy8t/0K5iv7MXy2PVQKgogfc4tyAEtB2MPEZtqxcM5GKdOPJsuOlN6sW1PKQZ+0V3Hpdbkf1Xo6nL+ipc2igBjbtw9b1O3q24AZq7aDXRkZzyxJVPf5XZhRxktR7ERHhlI2govuMmSqnyvnwkwHt162IkW+SV6qQfQrRC3XIKVGAxNWeb1UroGLGa9r03UK3+HbtLDXvE/5DFUkbfYtkYtFShkJ0/UEkXwsXO+BKwVhTyVe1Qrb1mPoQDZydKnQHJZQsKDz4ElkMlFUBVChZTle1ViA/H3BjGxMEG1euqJFiHKwbZe+vK7vm+yoDmO3ur1IyzYtsqREJN/Hb80S8/5pI74p3pFMopVrmFOQj1GaDOYv/S8TRTU/pT32pSC4dasIa39KRVApCCJ+LMco07kUhDYqLuel1MDEbLM2n+QeE8Gzg+3DvICYIZ+lUuXRCbz8rqZYGl+cl4r4PX5olpj32xuZ/ZsCopRreJNnPnblY44Yg3n0q7nM7b7gvPhYf0pBjHFRYIhIKdbBnDQtBcHHCBd6tFUSTaox8iS4Yv2+ABOnfoilXEBMb68V1q3FDGYVKgXP5IqNMaAplqYuOrffioG0KG3KNXRfYa66C9OXy0K3KO8i9jouJ9vPUhBXmGUpXhJEKogS9U7jUhC93VA+urDOrBZ3mI8CkX94vC+z4JvRxVMqIDaFucsGAhdFYIZZl6tisCj5EAGzKLXla50zwBYlw6pcw6Oz9UJnWsqWi6nG6jTiuBSEWH+Ou/eOoVIQRPxEEcqBKgXBI8Oya7qQqZRSmVCZ98hr1XDBUVxYHqXWWpTc4lRcW76U88COGnWW6azaItXcVt3gOrNxQl5AjH2+ZjisvYHX4V4m9r0W407HYlHyuuFyAEd7fOk/RzN6uYaXDr3Lfq34hO+w+xwx+bvrFH7XDtXqDK93UgoibK2+xqzPrhZNBUdHUCkIIn4oHyWhh48ZSlFmE8vQBLPyDLxvEQ7hQccuuBV8etBUXNFNVYodKgVBxEtUi5IYfnBXepTjydsu3DZGvFTJxZ15QF+PsbzlAEClIIgEQRblsMcw4Vs3GdwBkgWqn1SeuJINibEoCSJeSCgJgiBsINebIAjCBhJKgiAIG0goCYIgbCChJAiCsIGEkiAIwoa0jnrrcz/y57t5jkgbfNuxRk1WEbmNbp8iD+XwQc6vOUN52shw/jzZyEKPJscm0X94VndfhpTX880Cnq+zN4ZpV3xa1GyM59OsTudK069ifyKpfwzvvw9r0teilPJKgv3RKgkkHIgkh2cP4u+3SFih5KSsb4uc5zfUS0HkVK/WJ/VI1R8BT2pslpiE/6gZHyG1ei+REqL9fSQEq/vL+9l3QVuiRXoc2fTx4tSTvkLJ05L1nkR7ii2boVwKYoLbheDpv+qee9ci1ypKtTUZQtA9PZx4eaggZVWSy25IqehiKlXRKz2fLiUL6Qqhi12jK91i1VCml52vXbKaAcJcKKVck1vkXJQKEX28FEQ4H+XM5UqSXwZPwya9V/OeNU9hpFjthJxbs8UrAxG/SDyJhtYKjJPTJxEsWmr5h6tPuqH5XH5cddtFvkrWv0pYSxHHqmyb6gqT5chxi5dGFMtOWjTZ4gXc0ubHqj13nZUtrAFlUc9L2S8v26HLxan9jG74T2djtuW10F+zsIXB+1tQIo5pTXVt+NobPILIbWOg/LfYv/+3+L5oOkbK7i5c7fcO4cGYyleEUL1NcbUv4qf9qmEkp+b7bcK/Ylb3QxDXd+Ek/IFZ8Fl5cIZ9h7+DCfouzF2HVxob8crPI/NMmQvlAJaCUJLySuMkmguaOlEZaqUglC+2PDapZGPSfYlshis4fLtyd5M47xDy2bWQz5vtn51reIhkYrgOkLLfBr8hF6d+GIVnhApaWBKFddNxUt2OXU/PMs0182AGPya2/8yiZeq1VzwCKX9oYKfYtgZH3ctS+D0amkS/H/F/F3iGrkzTrP9s39OilIBJ8nfBwvUeuFIQSqlaaYxEc0FTWYRraJWC4OndxJeDeYDhWkExutj8XogxzYjzZr5DfMMVlThpYUm0V2j/kNj72N9Z5q3KZ/EibmKcVXPtZWoxhSd4Vsdh69n5sj+iNHXtBgvR7wcnzu9Cy1/hd5eYeIh2JWAS8F04+DQeLi3Fw7+ITJ9iOUaZzqUgkg4TRCoFoUc3tilZB8ofDPsCM0sUqqUa6bo7wdKSMLhbPEepI3y57N54sFCzrbZyZ3Q0P0z/PYm1J2Gx0t4csxOeUr6/WRzn/sXsqNmR/7fS7sfwgRlR70civgtcxLpNxTZqCZhoxPVdkLEO5qRpKYhUQaUgYkBxq9hS35bNvpD9+ANRLIlbRZvDx7XYF5qXG1auF6+g6RxtyRCxGJI4m6P5Yfqfs6x9FnuU9prfy29JU36/Rhzngj3sqNmR/4/S/iE7qzhxcj8S8V1g1qIxTsDHx21LwESlv98FGWuhTOdSEKrbJ4/7Of5liQUqBdEvOj8wCc/6u5mrbmahaxGWRIExiBfCJeWPkVkzji1KLry9zIpIk+klQwfn96P/3wU+LJXNvguiqRBDCRgdTr8LIpjT+PwjoiNMFKEcqFIQNmz1sV8xxYxei3Et+l8WNTIrucXK+5RftbDrLLm9SlkH0ws4fEpBRL9mNhhcsfXSYL5+gJ5bGbt54KtSeZ/FvrklkaEZjuBDIDwwpmzn68ZRxxYlE97F8qC99vgomBMNm78Pu/uRwO8CHweH5rtgVwImOg6/CwffhyTtE++EUSopHyVBEITE/Vj3hx/h7suvR9SBJ6EkCGLYc//PX8GPZowCzkeKJIeEkiAIwoaoY5QEQRAECSVBEIQtJJQEQRA2kFASBEHYQEJJEARhAwklQRCEDYNwehBPG6Y8vpTosgVe1LUWi8cWr+JI7VNYm6QktuUbA1jndiH/B8YsnfzpCOtyDVbIZRzk1zxDkD7bUjKvWbx8hjeaP8Wx4gw8KXoIIt0YhBalkjYs1ofindCKCu8T8Hqb4fhJuf6wshfrvvEl7IwQSf44Yf/KNSjp6cyTRkS7Zspja9pHybiwapOeJpOR2PmPz7FsVx87EoJIT8j1TjnMglochH+PuQVlV64hWQR7LZIVp4D6jW7sDFzCmo1fiB6CSC+iC6XhIXfdQ+Q85ZJmnS6xBN+OtbWlA/QPoIcfvpcXw4Px0fbtAO3nOk7u4JDH6p5Da6uybECNzurirrt2feR7yjeG4Dmbg/m/Ex06rMo1yNdLm0BDOscYr0s0gqctkhVLGO6XWt6C9zPLs1p8T9jxKDkDI45V2dbifjy5ZxzwjWt4RrR1REnRTxCpwFooudhZpXXnrlnlLATVvHRySnidGLK2UjpATs8ezi8nuZdqWna+aDOMONh3NNhxlxd1q7nnpJx4Carq563egCXudtRI7vkTqGkDZlauxmNi/WN1xfD4m6V13tp2XGN9/gbtOOcXmFfwMfwnjC43d3W5iEQp15BsPrBKVszv11Jgq3I/anAU2nRxLswo6EY9z83J7tPsQI1cKkJJwuv0frR+GSdDQUxfKdoEkUZYCCWzFHweBNu2mA7651SXIF+Xbr0Sr3Ix1KZW15QOiEzbzvCYV95ztO8oFE7jiUXDwiunZ7LLf+cEL5YWjYa/ZQdaRU9r1Q4c6c1DoWQ9eVHoYcJ4XKxteQunetn53KpN2Hcd2a6b0M0zqupQxhDjLNcQJ3Ky4kgrtbPKpzkOnn4uhEw3z58t09GiJED145ChZIfz+3EDLgaA7FtM3O8oKfoJIhVYCOUkjGOWTfAD/Zdeh5rANnZ47eBwTkmTvHD93rfsuuaXKW4eXxKZ2PcqLltGeS7gMi91O80rN3334o6Mqzh1ULOBlwmleJmWSMmKTX7ADEMhzktYxHY//IGb4HJfFy2CSB8shPIseCniqLhzdRaeZXlZC5QoLXeteTJbnVjGuW9tqvrEWmajMVaX0TkPY9XEvn78m1lE8BTLY5OVTG7aduinF7WOkBODpi3cWuSlY3NFmyMPhUC1ckXhtxhwej887o8RCowQLYJIHyyEUnav9OUgw8hV+LRV82rhY1ZG2AWLBb0ox7fv6MetoqR8/8M6OA8PtKKdGYce30PMyZbxVt8HT287dvFhAtZf4rmA3WL8ki+LqozmJxPK0MfIDnutMaFWu5PG/ZxadbEhl46dElHiQvUumHW5xPFnO7wfEl8gl1mf3R/eINoaoqToJ4hUYBnM4e6xXBwo7DapVh8Trc21h5GpulRyvepXdSUirTBGvOV6u7r6v9H2zYNMoj+fBxKklPLhoIfZcYejtDasWi0i1XzS+WjMrNRHrV+seAK7A4VYKyLaa4t6sHuxGLNs2YEmfx6WiHXKsrdaa4LegAOnb4JnfqxzBuvRtFVT3c7XjX06q04JBsmTzpVgkHq/bK6ZHl461qURSlFWV7kfldnwx2BROr4f3k8xxZWJY2azAaKk6CeIVECJexMFsyj3VmahybsFL4ouuc+DU7onfPiTKMw23pNnMUVoePLMCxdQErgNUzeaWJRRUvQTRCqwtCiJGPFk4WbxUsE718P6evBv3XjcSMzfkwnP4l7zOYPDEP445zL3OGw2EUmeor+xkUSSGFjIokwgfDL6El2wh49ZaixMDdbPeg836FlvIv0hoSQIgrCBXG+CIAgbTC3KG2+8UbwiCIIgyKIkCIKwIapF+cknn0j/EwRBDGfIoiQIgrCBhJIgCMIGEkqCIAgbSCgJgiCiAvx/Sn4KDhXGGxEAAAAASUVORK5CYII=;" parent="1" vertex="1">
                    <mxGeometry x="50" y="60" width="339.91" height="240" as="geometry"/>
                </mxCell>
                <mxCell id="3" value="02 . JS Code of Function Execute :" style="text;html=1;align=center;verticalAlign=middle;resizable=0;points=[];autosize=1;strokeColor=none;fillColor=none;" parent="1" vertex="1">
                    <mxGeometry x="30" y="10" width="210" height="30" as="geometry"/>
                </mxCell>
                <mxCell id="4" value="" style="rounded=0;whiteSpace=wrap;html=1;" parent="1" vertex="1">
                    <mxGeometry x="56" y="364" width="664" height="266" as="geometry"/>
                </mxCell>
                <mxCell id="5" value="Global Execute Context (GEC)" style="text;html=1;align=center;verticalAlign=middle;resizable=0;points=[];autosize=1;strokeColor=none;fillColor=none;fontSize=14;" parent="1" vertex="1">
                    <mxGeometry x="70" y="317" width="210" height="30" as="geometry"/>
                </mxCell>
                <mxCell id="6" value="&lt;div style=&quot;text-align: justify;&quot;&gt;&lt;span style=&quot;font-size: 14px;&quot;&gt;&lt;br&gt;&lt;/span&gt;&lt;/div&gt;&lt;ol style=&quot;font-size: 14px;&quot;&gt;&lt;li style=&quot;text-align: justify;&quot;&gt;&lt;font style=&quot;font-size: 14px;&quot;&gt;&amp;nbsp;first line&amp;nbsp; execute -&amp;nbsp; this&amp;nbsp; print window object&lt;/font&gt;&lt;/li&gt;&lt;li style=&quot;text-align: justify;&quot;&gt;&lt;font style=&quot;font-size: 14px;&quot;&gt;&amp;nbsp;second line execute - print window object&lt;/font&gt;&lt;/li&gt;&lt;li style=&quot;text-align: justify;&quot;&gt;&lt;font style=&quot;font-size: 14px;&quot;&gt;&amp;nbsp;execute - print myFunction&amp;nbsp;&lt;/font&gt;&lt;/li&gt;&lt;li style=&quot;text-align: justify;&quot;&gt;execute - fullname&amp;nbsp; print the : undefined&lt;/li&gt;&lt;li style=&quot;text-align: justify;&quot;&gt;&amp;nbsp;allready execute at 3 line when print myFunction&lt;/li&gt;&lt;li style=&quot;text-align: justify;&quot;&gt;execte - firstName assign value &quot;suraj&quot;&amp;nbsp;&amp;nbsp;&lt;/li&gt;&lt;li style=&quot;text-align: justify;&quot;&gt;execte - lastName assign value &quot;jagtap&quot;&amp;nbsp;&amp;nbsp;&lt;/li&gt;&lt;li style=&quot;text-align: justify;&quot;&gt;execte - fullName assign value &quot;suraj jagtap&quot;&amp;nbsp;&amp;nbsp;&lt;/li&gt;&lt;li&gt;&lt;span style=&quot;text-align: justify;&quot;&gt;execute - print the fullName : suraj jagtap&lt;/span&gt;&lt;/li&gt;&lt;/ol&gt;" style="rounded=0;whiteSpace=wrap;html=1;align=left;" parent="1" vertex="1">
                    <mxGeometry x="56" y="404" width="404" height="226" as="geometry"/>
                </mxCell>
                <mxCell id="7" value="&lt;div style=&quot;font-size: 14px;&quot;&gt;wiindow : { }&lt;/div&gt;&lt;div style=&quot;font-size: 14px;&quot;&gt;this : window&lt;/div&gt;&lt;div style=&quot;font-size: 14px;&quot;&gt;firstName : undefined&lt;/div&gt;&lt;div style=&quot;font-size: 14px;&quot;&gt;lastName : undefined&lt;br&gt;&lt;/div&gt;&lt;div style=&quot;font-size: 14px;&quot;&gt;fullName : undefined&lt;br&gt;&lt;/div&gt;&lt;div style=&quot;font-size: 14px;&quot;&gt;myfunction : f&lt;/div&gt;&lt;div style=&quot;font-size: 14px;&quot;&gt;after 6 line execute&amp;nbsp;&lt;/div&gt;&lt;div style=&quot;font-size: 14px;&quot;&gt;firstName : suraj&lt;/div&gt;&lt;div style=&quot;font-size: 14px;&quot;&gt;&lt;div&gt;after 7 line execute&amp;nbsp;&lt;/div&gt;&lt;div&gt;lastName : jagtap&lt;/div&gt;&lt;div&gt;&lt;div&gt;after 8 line execute&amp;nbsp;&lt;/div&gt;&lt;div&gt;fullName : suraj jagtap&lt;/div&gt;&lt;/div&gt;&lt;/div&gt;" style="rounded=0;whiteSpace=wrap;html=1;align=center;" parent="1" vertex="1">
                    <mxGeometry x="446" y="404" width="274" height="226" as="geometry"/>
                </mxCell>
                <mxCell id="8" value="&lt;font style=&quot;font-size: 14px;&quot;&gt;Code Execution Phase (CEP)&lt;/font&gt;" style="text;html=1;align=center;verticalAlign=middle;resizable=0;points=[];autosize=1;strokeColor=none;fillColor=none;" parent="1" vertex="1">
                    <mxGeometry x="81" y="374" width="210" height="30" as="geometry"/>
                </mxCell>
                <mxCell id="9" value="&lt;font style=&quot;font-size: 14px;&quot;&gt;Global Memory&lt;/font&gt;" style="text;html=1;align=center;verticalAlign=middle;resizable=0;points=[];autosize=1;strokeColor=none;fillColor=none;" parent="1" vertex="1">
                    <mxGeometry x="526" y="374" width="120" height="30" as="geometry"/>
                </mxCell>
                <mxCell id="10" value="" style="rounded=0;whiteSpace=wrap;html=1;gradientColor=none;" parent="1" vertex="1">
                    <mxGeometry x="425" y="75" width="259" height="200" as="geometry"/>
                </mxCell>
                <mxCell id="11" value="&lt;font style=&quot;font-size: 14px;&quot;&gt;Global Scope&lt;/font&gt;" style="text;html=1;align=center;verticalAlign=middle;resizable=0;points=[];autosize=1;strokeColor=none;fillColor=none;" parent="1" vertex="1">
                    <mxGeometry x="495" y="40" width="110" height="30" as="geometry"/>
                </mxCell>
                <mxCell id="12" value="firstName" style="text;html=1;align=center;verticalAlign=middle;resizable=0;points=[];autosize=1;strokeColor=none;fillColor=none;fontSize=14;" parent="1" vertex="1">
                    <mxGeometry x="435" y="105" width="80" height="30" as="geometry"/>
                </mxCell>
                <mxCell id="13" value="lastName" style="text;html=1;align=center;verticalAlign=middle;resizable=0;points=[];autosize=1;strokeColor=none;fillColor=none;fontSize=14;" parent="1" vertex="1">
                    <mxGeometry x="435" y="155" width="80" height="30" as="geometry"/>
                </mxCell>
                <mxCell id="14" value="fullName" style="text;html=1;align=center;verticalAlign=middle;resizable=0;points=[];autosize=1;strokeColor=none;fillColor=none;fontSize=14;" parent="1" vertex="1">
                    <mxGeometry x="435" y="200" width="80" height="30" as="geometry"/>
                </mxCell>
                <mxCell id="15" value="myFunction" style="text;html=1;align=center;verticalAlign=middle;resizable=0;points=[];autosize=1;strokeColor=none;fillColor=none;fontSize=14;" parent="1" vertex="1">
                    <mxGeometry x="561" y="125" width="100" height="30" as="geometry"/>
                </mxCell>
                <mxCell id="16" value="" style="rounded=1;whiteSpace=wrap;html=1;fontSize=14;gradientColor=none;" parent="1" vertex="1">
                    <mxGeometry x="551" y="165" width="124" height="100" as="geometry"/>
                </mxCell>
                <mxCell id="18" value="" style="endArrow=none;html=1;fontSize=14;exitX=0;exitY=0;exitDx=0;exitDy=0;" parent="1" source="7" edge="1">
                    <mxGeometry width="50" height="50" relative="1" as="geometry">
                        <mxPoint x="396" y="414" as="sourcePoint"/>
                        <mxPoint x="446" y="364" as="targetPoint"/>
                    </mxGeometry>
                </mxCell>
                <mxCell id="19" value="" style="shape=partialRectangle;whiteSpace=wrap;html=1;bottom=1;right=1;left=1;top=0;fillColor=none;routingCenterX=-0.5;fontSize=14;" parent="1" vertex="1">
                    <mxGeometry x="750" y="390" width="80" height="200" as="geometry"/>
                </mxCell>
                <mxCell id="20" value="" style="rounded=0;whiteSpace=wrap;html=1;fontSize=14;gradientColor=none;" parent="1" vertex="1">
                    <mxGeometry x="750" y="540" width="80" height="40" as="geometry"/>
                </mxCell>
                <mxCell id="21" value="Stack" style="text;html=1;align=center;verticalAlign=middle;resizable=0;points=[];autosize=1;strokeColor=none;fillColor=none;fontSize=14;" parent="1" vertex="1">
                    <mxGeometry x="760" y="590" width="60" height="30" as="geometry"/>
                </mxCell>
                <mxCell id="22" value="GEC" style="text;html=1;align=center;verticalAlign=middle;resizable=0;points=[];autosize=1;strokeColor=none;fillColor=none;fontSize=14;" parent="1" vertex="1">
                    <mxGeometry x="765" y="545" width="50" height="30" as="geometry"/>
                </mxCell>
                <mxCell id="23" value="OUTPUT :" style="text;html=1;align=center;verticalAlign=middle;resizable=0;points=[];autosize=1;strokeColor=none;fillColor=none;fontSize=14;" parent="1" vertex="1">
                    <mxGeometry x="55" y="655" width="90" height="30" as="geometry"/>
                </mxCell>
                <mxCell id="25" value="" style="shape=image;verticalLabelPosition=bottom;labelBackgroundColor=default;verticalAlign=top;aspect=fixed;imageAspect=0;image=data:image/png,iVBORw0KGgoAAAANSUhEUgAAAdcAAADdCAYAAADpaDgTAAAAAXNSR0IArs4c6QAAAARnQU1BAACxjwv8YQUAAAAJcEhZcwAADsMAAA7DAcdvqGQAAFWVSURBVHhe7b1vbBXXue//vZVOo/M728Rs7ETU2NT83HNMXKKdqHUSHEBC10a+5EWN/eJHSEsTNyGq1BvJgepc6VRxdPviHpkgRXlTAiThqjR9gaFXSn4IWxcpECg4R8lWEwfOiS9u7CCUYDYE7+q0py9+v+dZa83Mmtkz4/1nbG/j5yNt2fN3zaw1a33X86w18/yn1tbW/w+CIAiCICTGN8xfQRAEQRASQsRVEARBEBJGxFUQBEEQEkbEVRCWDYPof/M8ejeaxYrZjd7X/oDBN/Vv7wu7zfpFYuNh7K2G66hmdv5OlVX/TrO8UCxWuouIiKsgJIlp4LXgBIQsbtsSpPmF57AhdwKDTz+ofvtfPWq2zBdJdw7uQljEXjuMZrN412LEevDN32GzWVVtiLgKQmJQ4//sekwe0mIzeOgymp91Kj9ZeTu9bUezwIadS7sRbEzXIJ+bNEtVwIWfYP+CiPwS5u0fqOfvyNtmeaFIMN3mF85jcOMMjo5cNWuqE3kVRxASgiv97vQoBl8a9JYzNZgeCWlU2Ip9tg5jT/8AZ82qWNT+7UiZxXz2FU9EuBfftU7/T/jTY2tvBxrNEjCLjw91YPiCXtr88h+wtUn/j/wYjv7sJ5hLLn3HuFzFGXUvnF4nbrtp+Jf52O/kxrAyY+4lmGbEfcan6b+mwvxm9/WL2OCe1EqT09sJTObasSHy+GjC88+kBy8d/SzccK83eJ/BNP3367/P9pxX9t5yc6CcDVMnzPNo54H/GVDEPF+cRmyZRRL/7AXT9K7VwRxfsN6gnnt4eVpliOUqCAlhW3LcILHQnpkCVt5XOAbY/P31SE1li2sUTCN0ixpgZRHb1pnbwDjWMjWCXY7rVDdOcI87gWl1kIYbfG6YnXMenViP3iLGK8++pPfne+NGWB9ffAPXmHEs+FfwMdqx1RmHi7lPnSZfPzfQznYvTb2dzpc3K1y0qDRPePd5hoR098tWY50iYYVxb5M11EjXUYxHITr/jmL4Z/re1DKdr9cWVi4X1bHSx/F9octzbyphTZOAuduLydtBHOF92Zpj8XOOdUWJr4nX+Z8Bhcp3y+NC+9zKvOgbH40ss1jMNalfYdls3uYv61ABXcKIuApCojSrST6q0Y1qLEgQlRVTZGOihfhEqDXVfF89CdxJr/G9cA6T+RrUrqX/d2bQSA3tmVArbDcebqlBihpRPXZFnQGyslPp+XdU57OvG+vlKG7kvM5H3H2WTzNqU1cx5nRGiLNXSIDSaywBJcvQKYvPZ5BP1RVagAXMlX8sZlqkBpVwWQLJ5YJ12GqOG1TWXT3qTYfoO03UgXi7GMswIdbWUb6PWpbsID4LdAqjyqwSpnOzaOyi+7c7Oj6MOC9R0RVxFYSE4MYildmB2guOxbUb9Wng1ldew15drizbCrw7rYf5pZj8m0Xe6ezYsKvTPu7pgJt2GTD5aoe+9ysZ3cm4yyZiibgKQkJMfnAZebKCPnMsr5092EBWk7PMbsRyhFWdt6kzdJbs5Fc3SNB7vBmTdprKCluPh9Vx7B61x7/YAqmZp0lVnphsfjlkHDCCuPvUTOJ2mFDFwsesQ7vr7qZ82LgO+Qmy8M2a8pgr/3R+Y6QD+99mV701q5XLpWlHxGspbDXSebdFd3Jc65g6agXj0EVb3hbqeqx833gY7WQ9T35gdQpj4XtlC7zMmbtqstMJTBdcNw9rxFm21Y1MaBKEJFGWqTO5yJuIohuKQqHxTUyKw3de/3HOxCmNf9KIvW165BXc3vgcNWbOdj0e6U70IUqdzGNPrnGw08xnT2CypdNNM3hMwTli7lMRmr+F98F49xLIe3uCjBpvtCaWBZdjico/s55fUzLp6DyBVzaB+/RPEgqe13qO1PV5E4vOTKxHO1735ZEas3VE173XsOfPelYC12M/B3OWmXu99vMehPcp9dkz12yXFxPMO6boSVYLh4irIAiCMM+wUNqzyO9+RFwFISF43EgQBKoLTz9o/jMoa1MPifBErvngj1c+wFv/3G+WFh8RV0FYZHxuvABFu40TxO9mDhB00d21hLvxNX7XuxCBz327/PJMxFUQBEEQEkZmCwuCIAhCwoi4CoIgCELCiLgKgiAIQsJUvbgOvDGK0dEjGDDL5cDnODnUZ5bmmd4hnBzlaz6JoV6zrghat+/Bnj1PoNUslwOf48mOOrNUnfQNnSw5b4Koc7xRyROxmNTh8Sf34In1ZjGUVjyxh58H/j2Jx+vN6nljAEf4ma0oT/kclZVr0iyF+rC4vITHfnkO61vMopAoiyeue49g9OQQ/JLXh6GTSVfQPqxeCeS+PG6W5xO6/qdaMPGrTnR29mDfsFm9INSh7l7gTm7GLC804Y0rC2HSHZumVSnkb06ZpaVGHWprZnE7sphYWLcAZw/i4EH+/Qbv3zCbyiC8I8JlVVmHtYDe1Ugjh+sL+szHsdj1oVKK6YRVSEsDajCDOxNmeclR3Z2DxbVcb12HX/KakE75K+iBZ1io+nHALJcOn3MK4/vN4nzS+whIWnGpjAbmyrvckL6DK2a5dLjRvoaJy2ZxUShsXFkI7Y7N8X09FXY8uLOUx8TFhegszQP1dViBO5iJEkxqKRpmx3ExwXIs6IiwEOZz8NYeQH8n1bNnyq9laE4jNT1eQT1NmmqoD5WwANffUI8V01lcM4tLDu4c5C/jWpV2DhbtVRzuUe/CMfTssxpJdqluv44equS8fU+Gv42VR/ZX/saY3bxtnx5ErmMP1C7Bfdgq3ma9OJjP4mDPPi3knMbzGStu4UF9DXxMR87bT8E9/E3IBdKPhM/xwLivkWLX1MO3h/Gb81YPev0T2PPQbQz/5n2g40n0fpffKZzF+Am/lcLHtlwdxu2HetGmXjsM7MPn2dxgFghqlPmcKqX6x/HkjjbqmWpmPzHXYKXtXRFbSw/jtntu9iBQ3sLKt7ngfH0KOObbn8/Tjes91DmyymTqdCf67c6OybeDNzeZMrfKhQmUGZ0Bp9wOl7lWr0D1Natj0jjn65jpfdPnA+mXDFsVTpkw1/Ce1TGqc8uU8W9T+b9uAgffDe9GqWNrP4zYzs9jN5qmTxUthLquFOb3yftPUf7Cyzu7jig4r3YBvz6H9POUplpn57s+d7f1IqivzKzyZpwy52M23bT2Y3jfgrpXBuXUB4fAsdfOHsQ7JGzB8vCWZ+gZ6AI+mkLTZjrvF+MYv7eNngm7jmovhHNWL01+fujY0Q9Ru8PZ7jwn/mNcvnjP90zo9hEFbeNcNOzJ4jGrzO5kD2Dk+P/UC1tOoq/T+1LytdEMfv+eWSD8x07i9//Uo4SZ17fd9M7jLmcfR1cfMD6xHo9lanAtO4aaTDtW5Mcw8j+eoy4m0fI6un5M69SRVpq8no69+Pt6dDnXNH0Sxw++XHCMg+9eqoBFs1ybVkFbH9wIGhdV36Nk33Mvm9Z1k/B2dh5ENp+CPwqWdvM2bdONZCf1uE9NW/uoSg1qBPS2ztN0PsdCVg2u47al36+yQKbbc4+p/bhRMe7NEl1dAw80YerTwkZPuaa4cj/5OFUrqlppeiy+nsEMrXsUI2SxDmN8tga1vuEh7dZq2NyL2o+0i/C9L6x9VGMAqpDGfXiWHnM+J29TDQldywmz7cQ48N1Hqdoa1H5cwc14XpQ1VeBZiIEsF0xcMvk3iiN7aZ2y5NlCIlHgTocqKyB9f2Aw4H46trEbe1adc8sstco0zCFllnetLi2WLRMH9TZ+XqhL0M1pM2Y/btDV9SgvRh4m5GrZtG7vRdPnwzpv1c8TT+4Qdaky1dve+6IBD1vjfq3rGjAb4hPm43iMVYnymi1mvDXcLVi8S5zrivHacL0wwzD8nLI3oW+om8TT5GkqbQTUgfMqhczz3Lk0eZtPY7Vx+ythBYm8ynddrq6HIqQONnV4Q0BqPy5Xcz2q/Et51sKooD6wYKoOp3Ms/VhY1bbaGl95+Zdr0PYQMMJprWmjesr12GziNPfQc+uc05cmW6V07A7u0PJ2Pm4F6tTY+hW8Q/sPf0InYkF1jg/tbJXmhlfiCBKof8qo3++pzGZv2MIKEky97fjoJBoee90I2I+w/h+1YDrHHjfCyttWUHvsnie4nGpHGw6ptBoy9Rh/a0yLKsNpsoCGpclWNR3b9dgNjPA2Pm5lg9428Zxax+dkQXWuqZqElVkkceVKrx+MgUdJvkyldQV3eB/6Vc822qXLvWTdG9duQt1gUmPbQZXotNW7poZEN0a07akMcqetnt7wdXo8ddpcwdV+ex9B+hYJAIt1ka4uNa41GmIhKIHU42utf19LD1WtFleqoNeuUmW58T7eMT3ZKBcQ93Z1RffOxf8//lAD9a6tRt1ttGlbZxvunLUs3BszlLauvCzsar/1raj9Glqs62qp5z3hWVfUzO3roUaxBDch559qNFX+5bWAuoJ7AP3qXDEuXbacTHpuWRAD27l7fswtM+6ApUxD3De0C5lbbIE55zuO61x2Jm21HzXiq0li1TrlDi3PbW8zc3sWNd/tLZwsQw3qw2uoyaVtjjhuuXccI66FFD0OqIcFdOPMVlOwkddo963P6ouF6o/q3NCzfz9Zj0pAPcE9vq9f52vMcz7l1heui6Yxpzzd1EhWrPt8DKCt0amD1JHaliaLyvIYTOaMeHt1VdV7ujoWdB46COuUFk/59YH2xKPfJetq1PbkOOg6N/VvYeXHdZasVDoO3FkmIXznMq/TndTWdraSG7DFPAd7yGq+Y10fc829Ju84h6CoB9HDK7ZXZg7I2mtrJGuTLT/FS2hqpPZEKeRLeKyzjoTPEUzi2g3cSdVrS39LDwnkGC6GihfHy53ElGvh8rI5LwskWalc3Vlwr43S+XndrWuU/yTYj1EjywL6yyz6+MfXcNxYtAq6XsfCdY9zCIp69bFI4soVlf5ww/dlP8ZvseVJFXRloOHb24Ym39gQwdYQCe45t4GxKr363xZjrvROj5q3BawWdX4vzdyXwNAD1OP+lKo9NcZRlmgQ/aCfAraFTRKhSoPHyYK7iImvuUK3omVNQEjVONttf+Wm/ZpIcD+0GmavAgbFmM/pr/S+eqnOP4UrpvLeyQGPr6Me41VqYtJ1qiFSYl8B3ECyeA7dfx39lH9seQ48kPYLqSq7YG+7D4+0UON63nMJeuO0QTHW+zrCWzixSTfyzv68bWB7GtffpRum61GeESX2lTFz/jdK+EbIRuWG0xVZ7qSwK9KxNvjnc7+HlI2PYLlWiPK8ENThwcVTuhNL/7fc8gup1wG1UHUji1NOXbLHaYNizPs6VlSIt0d1iNz9aRuGqLE+RfWeO7ZcZpXOiaigPgTqhg9VBy3RW/8o2px02NtjjnM7y2od12MtwnYniX9uRyk4ru4e5xAU9QRgcbLHV7dkSPrNZKaQiU0rMuvd/Rtam2nb+5awWfB58jfgGOwr+v4zLetx0BV0X/o4T4DVupvcCGsRHn/LWK3qtwmXzTWoNLMn3ev1jnMIinr1sTjiqioq0LYduESVauomLdxP6wKuIdtdNDBk3EpcsW3BLRBgx3XFLkMeK7IF1XYxcw+bxNM06kocHuhG+lO9nGrZhU0rrcZlLuzGx4UrNj277bWYUCJZg6bOh7Hik4u+HqzrJqb/Wzu061g31FaFKxBgp+fN7l0eo7EbENvF3IonNpN4fqQbeW4IsO5R1F7VyzVru/AwWVf2BBp2+RXO5I5DiyDnHy5SE8qWCtmLjnfCxSq7PipP3REJdnpsK4jxymzgDT0+6LofCdd9TAy8weOR55SlpZ6dVd1ou3lKN+orN2FXJmd1ygh2X1bw+giLLLvvamx/fo32ToTCjSh3tkxj3bo98JpNQRnb8PNc4usyynpPo/uB65Qn2qoH54tPSLnsnDwdwJCZ2W3XPbVseQwUK1fr54Pduzy2GloHCdq+i50P73Ip6E51G3V4xlU5pNDy1Caks6aMFGXcp6K8+oCZ25itaUKrXQ4Odh1kN681Jlv3902oMcMrjkfJW6fhjmsYdn1Xy4HjaI1qNyIp97l13Ko8ZsnjmJYocpornFm3tP1RKrPx/62t3Nmbs7TtcX1sABY9OBbllpPocr9J/SM0tJD1zZalmnjEaVnrFFQuBYPLTKGr2X8coToE1U1i4vrzn/8c3/rWt8xSEaSoQhohO/5lDk2ZDHIBK5HX81iccrl+qfctqPS+5QMYn+ZxIn7PlMdkT1GFdxr4A+jnsZ9tvI1/JASBiTVNJAZKTJUbi6wny5qaE9WQWY2PCz3Qt7WYKnci9YQ9a1Qzk6NH04yzteSMCAYroG/5Cia+4DEbdjnxmOx71MNzGu0reOfsNTRsNu6oPfq1Dtu92HDvbS2mqmGpwR2noVHoxrZ0UtR0jmsXIrvbGzPIBCwkna8Z7KH834VLelvQ0vEtH8elibxbZptIKLN5T3gPPEPla54P/qkxQMuVnWqkBoIbcb4eKk/4GnGH4Jh+PGp8znH10a937RSGnfGwy++oMVbXFUg/n+v4xhVMzXrbW65arkoiWOZ+tDCVTCPlphI27sQCmUzAm0B5zKKr87gN103nI+gV8C3vH8eUKcdRnjRmz2sY3odjPJVB1UHezuPl9qQbug/T4eFOdSoV6PA4OOJdFBXUhxvvY+QTEnx1rP6549xkRl2raUMvr99Riw9PjGPWiK1nrZJ1S62Mz4KlPd4f5TFWb3jAfoc96PINLvvvh37b/W+/qzavVN4jK9Rxwf64HuOjVIkcUZx4DhepzNp+bNyzP16P6bc8K/LO8UNUsy337S9PUqtmtmUv405jj17P46PueS1rlaxgBCxY4GX8nsdYO51z0u8fXzcCrq1a7bJmgssEnW8634zHzLFdfT8yG6qHxGYLDw4OorGxEceOHcOZM2fM2uVD6OxnobphCyCJWaoJETqzfNnBlmsSM7oFYXFJ1C38jW98Az/84Q/x05/+FLW1tWbt8kC5lYWlAbsy2aqqImHVk6ESHmdbYqjhCOVxEmEVlj6JWq5r1641S8Ds7KyyYi9dumTW3OVwg63exfS/CygIsajXRPT7l867lYIgLH3mTVyZ06dP47e//a1ZEgRBEITlwbzMFp6ZmcGrr74qwioIgiAsSxIX1/fffx+/+MUvkM1mzRpBEARBWF4kKq6HDx/GkSNH8Oc//9msEWzu+W8X8L3h/xX+ftaWw2gd/hhNPzbLCcCzT6st5Jb+zF9lofXubvj7waNLI6Seet9yiVyrICwwiYnra6+9hvPnz5slIYxvriJZncxaL25bNNcjhau49ZZZrhj7U20LCH/j1XxDuephcSjpYxnJoD6XeTcI0v5+9WWyqcZNCYeJFISlT2LievPmTfOfEM5u/O0q4KtPXjLLfu5ZXR8tvGUR8tm3BYA/hDD7+ZWIDyEggdB6yRH8IMlCwa9tRX9WM4HwbwtO4EtcgiAsXsi5SmDXYkmh2KDDOUEd9x6weYv6tuf4121oW+N/BYLPvYXWKWgff2g2/YJ7SaHYFgt+xaMTGPFdvwN/Is4KmRa8T+v1EMYXnisib2c4FJcbZs3BKxcVqisitB7jy3dzTiXAzn18VIteJ91A+C3tSi0tFBsTGv7MwX21SuMLp8aw1RsSUo1REWOssF4w11WwXuG8umWeLU6wIPwbY21nrH34vLEhGOcTzqeCUIOCIMzLbOH5Rbs7SwrFZkV8adjcggn+jFlNG5puD9OxZoMSHBZfcxxHKEEbHg0J+bUY1k6pFH6v1EELqxcyLXCfnH/8qTcn/+jnF9bwvNUfs+fPzrF4OscaESWBjA6tZ4QVXngtX5g2/r4rf4LOCQnGZXcvPQN6q4+Cj8/HEgwKYKGENTo0oXLr8gconJBq9PMJayAUm2OlqsD/HN5NCapzrH4nOj78mxbW8NB6+nOVkSEY5xv+7Kf5VxAEjyUorppyQrHpSBW0zUQvGTlPa51jVcQLFl/nW6Bk2X3NYaTUaQylh2JbLAq/V6qp6+hS9+V9Yo8E+GvnI+OF+ecRl7eGwIfpXeJC65Fgc1g29/u8hPoGs0+ByZJ1LGsuu4JOQ6mh2IjQCD0MCVlMaEK2krv5Q/S/DrHUSJSjQ7EZgoEnDHHh32JD6xnCQzAuAPv7cXCiBXsqCIAgCHcjS09cKwrFprd544Leseqj6XZwYv6FBiheCkRPZioUXc4j89k9k7c+8XOJy1sDC58vLmyAkKgvhR+rr0PrWucD6EbArShCquxCOg0lEyFy6sPycaEJA2EKfQSF0Q7FZuBx3nxM2Luw8G/Bj+g7oq2sbtVJiArBOP+wpc7f1O7sXCA3tCAsERZXXNn9NjqKI8q9VSR2GCim2FBs1n4sMEoUgsdGuBsduCFZ6Nml5aXJQuhNZuLxTjfSB2Fbha3bKY+++FC7b1UQ6Qa0hLnCFXFhvWgtC2UMtpC6ofUYK9+VZQ0nBF6wk6CF199pYJdp6a+DxE9mig5NqCP7tOCRKCstNhSbFspowsO/MVGh9Qo6CQUhGIlSQ5Speqn3V88f5621zsMSeUEQfFSF5Wq7t+YiaOn4l6NDTymLR1mrbHEFLVgeMxxRY48qvJT52YLkNHyLQsEY3Fz4Q1Z1YcR1b195l/LEhLfjnxrrdC30YHgu+z3ZuLBempl/m8Kse+5ArFIiLLReMN9VCDd3cpW/k1C4zJQXik2JnBWubnTUCXQ/R2jCYEg1u3MYF4rNcODTKaQye8yxweD64eHf4kLrBTsJ0Z2GEsZhWbDVP9Yz766zUDGMI6x4QVjmLO5sYe4NcyMkH7qPhC2HyBmtglAM8xVaj8/7wPgSe21IEBaGRbJczVdoRFgjUTNSKY9EWIWyMcMu8xNarw9DHU0x7+sKwvJmSb7nKgjC4sHeFPW+bonvFQvCckLEVRAEQRASZsm+5yoIgiAI1YqIqyAIgiAkjIirIAiCICSMiKsgCIIgJExZE5ra29vNf4IgCIJQnYyNjZn/Fh6ZLSwIgiAICSNuYUEQBEFIGBFXQRAEQUgYEVdBEARBSBgRV0EQBEFIGBFXQRAEQUgYEVdBEARBSBgRV0FYNgyi/83z6N1oFitmN3pf+wMG39S/vS/sNusXiY2HsbcarqOa2fk7VVb9O83yQrFY6S4iIq6CkCSmgdeCExCyuG1LkOYXnsOG3AkMPv2g+u1/9ajZMl8k3Tm4C2ERe+0wms3i3crml516RL+XB83a6kLEVRASgxr/Z9dj8pAWm8FDl9H87O+wWW0jK2+nt+1oFtiwc2k3go3pGuRzk2apCrjwE+xfEJFfwrz9A/X8HXnbLC8USaZLHYitcDp1JzDdtKMqLWL5QpMgJETzC+exOz2KwZd0T1otZ2owPRLSqLAV+2wdxp7+Ac6aVbGo/duRMov57CueiLC10rVO/0/402Nrbwc4trlmFh8f6sDwBb3EFsDWJv0/8mM4+rOfYC659B3jchVn1L1wep247abhX+Zjv5Mbw8qMuZdgmhH3GZ+m/5oK85vd1y9ig3tSK01OjxrmyVw7NkQeH014/pn04KWjn4Ub7vUG7zOYpv9+/ffZnvPK3ltuDpSzYYpESD2Pdh74nwFFzPPFacSWWSTxz14wTe9aHczxBev9BPOkWhDLVRASwrbkuMKz0J6ZAlbeVzgG2Pz99UhNZUsS1lvUAOveumWdKWEFNb5m2yFqBLsc16lunOAeR718dZCGG3xulJxzHp1Yj94ixivPvqT353vjRlgfX2QngWjMOBb8K/gY7djqWB0x96nT5OvnBtrZ7qWpt9P58maFixaV5gnvPs+QkO62XYkpElbHEhq5ika6jmI8CtH5dxTDP9P3ppbpfL22sHK5qI6VPo7vC12Oh0M/O1vTJGDu9mLydhBHeF+6fiV+zrGuKPE18Tr/M6BQ+W55XGifW5kXfdZgZJnFYq5J/QrLZvM2f1nHCWg0g/hO0ywmP6guYWVEXAUhUZrVJB/V6EY1FiSIyoopsjHRQnwi1Jpqvq+eBO6k1/heOIfJfA1q19L/OzNopIb2TKgVthsPt9QgRY2oM3bFVnYqPf+O6nz2dWO9HMWNnNf5iLvP8mlGbeoqxiyr5uwVEqD0GktAyTJ0yuLzGeRTdYUWYAFz5R+LmRapQSVclkByuWAdtprjBpV1V4960yFisfj47WIsw4RYW0f5PmpZsoP4LNApjCqzSpjOzaKxK27M1IhzZD3hjtMOrHSvrboQcRWEhODGIpXZgdoLjsW1G/Vp4NZXVq/atTSLt/TmD9sKrMR6WK4Uk3+zyDudHRt2ddrHPR1w0y4DJl/t0Pd+JaM7GSVNxPI8EtXmDnYQcRWEhJj84DLyZAV95lheO3uwgawmZ5ndiOUIqzpvU2foLNnJr26QoPe4LkVfmsoKW4+H1XG6l+9ZZGyB1MzTpCpPTDa/HDIOGEHcfWomcTtMqGLhY9ah3XV3Uz5sXIf8BFn4Zk15zJV/Or8x0oH9b7Or3nP7qnKJnITDViOdd1t0J8e1jnliT3AcumjL20Jdj5XvGw+jvSRXK98rW+DWPZaCmux0AtMF183DGmGWLa+vbmFlZEKTICSJb3KRNxFFNwiFQuObmBSH77z+45yJUxr/pBF72/TIK7i98TlqzJztuvfvTvQhSp3MEzaRxE4znz2ByZZON83gMQXniLlPRWj+Ft4H491LIO/tCTJqvNGaWBZcjiUq/8x6fk3JpKPzBF7ZBO7TP0koeF7rOVLX500sOjOxHu143ZdHaszWEV33XsOeP+tZCVyP/RzMWWbu9drPexDep9Rnz1yzXV6E/3l3iEt7cRBxFQRBEOYZFkp7Fvndj4irICQEjxsJgkB14ekHzX8GZRnrIRGeyDUf/PHKB3jrn/vN0uIj4ioIi4zPjRegaLdxgoS73QwBF93dS7gbX+N3vQsR+FzNyy/PRFwFQRAEIWFktrAgCIIgJIyIqyAIgiAkjIirIAiCICRM1YvrwBujGB09ggGzXA58jpNDfWZpnukdwslRvuaTGOo164qgdfse7NnzBFrNcjnwOZ7sqDNL1Unf0MmS8yaIOscblTwRi0kdHn9yD55YbxZDacUTe/h54N+TeLzerJ43BnCEn9mK8pTPUVm5Js1SqA+Ly0t47JfnsL7FLAqJsnjiuvcIRk8OwS95fRg6mXQF7cPqlUDuy+NmeT6h63+qBRO/6kRnZw/2DZvVC0Id6u4F7uRmzPJCE964shAm3bFpWpVC/uaUWVpq1KG2Zha3I4uJhXULcPYgDh7k32/w/g2zqQzCOyJcVpV1WAvoXY00cri+oM98HItdHyqlmE5YhbQ0oAYzuDNhlpcc1d05WFzL9dZ1+CWvCemUv4IeeIaFqh8HzHLp8DmnML7fLM4nvY+ApBWXymhgrrzLDek7uGKWS4cb7WuYuGwWF4XCxpWF0O7YHN/XU2HHgztLeUxcXIjO0jxQX4cVuIOZKMGklqJhdhwXEyzHgo4IC2E+B2/tAfR3Uj17pvxahuY0UtPjFdTTpKmG+lAJC3D9DfVYMZ3FNbO45ODOQf4yrlVp52DRXsXhHvUuHEPPPquRZJfq9uvooUrO2/dk+NtYeWR/5W+M2c3b9ulB5Dr2QO0S3Iet4m3Wi4P5LA727NNCzmk8n7HiFh7U18DHdOS8/RTcw9+EXCD9SPgcD4z7Gil2TT18exi/OW/1oNc/gT0P3cbwb94HOp5E73f5ncJZjJ/wWyl8bMvVYdx+qBdt6rXDwD58ns0NZoGgRpnPqVKqfxxP7mijnqlm9hNzDVba3hWxtfQwbrvnZg8C5S2sfJsLztengGO+/fk83bjeQ50jq0ymTnei3+7smHw7eHOTKXOrXJhAmdEZcMrtcJlr9QpUX7M6Jo1zvo6Z3jd9PpB+ybBV4ZQJcw3vWR2jOrdMGf82lf/rJnDw3fBulDq29sOI7fw8dqNp+lTRQqjrSmF+n7z/FOUvvLyz64iC82oX8OtzSD9Paap1dr7rc3dbL4L6yswqb8Ypcz5m001rP4b3Lah7ZVBOfXAIHHvt7EG8Q8IWLA9veYaegS7goyk0babzfjGO8Xvb6Jmw66j2Qjhn9dLk54eOHf0QtTuc7c5z4j/G5Yv3fM+Ebh9R0DbORcOeLB6zyuxO9gBGjv9PvbDlJPo6vS8lXxvN4PfvmQXCf+wkfv9PPUqYeX3bTe887nL2cXT1AeMT6/FYpgbXsmOoybRjRX4MI//jOepiEi2vo+vHtE4daaXJ6+nYi7+vR5dzTdMncfzgywXHOPjupQpYNMu1aRW09cGNoHFR9T1K9j33smldNwlvZ+dBZPMp+KNgaTdv0zbdSHZSj/vUtLWPqtSgRkBv6zxN53MsZNXgOm5b+v0qC2S6PfeY2o8bFePeLNHVNfBAE6Y+LWz0lGuKK/eTj1O1oqqVpsfi6xnM0LpHMUIW6zDGZ2tQ6xse0m6ths29qP1Iuwjf+8LaRzUGoApp3Idn6THnc/I21ZDQtZww206MA999lKqtQe3HFdyM50VZUwWehRjIcsHEJZN/oziyl9YpS54tJBIF7nSosgLS9wcGA+6nYxu7sWfVObfMUqtMwxxSZnnX6tJi2TJxUG/j54W6BN2cNmP24wZdXY/yYuRhQq6WTev2XjR9PqzzVv088eQOUZcqU73tvS8a8LA17te6rgGzIT5hPo7HWJUor9lixlvD3YLFu8S5rhivDdcLMwzDzyl7E/qGukk8TZ6m0kZAHTivUsg8z51Lk7f5NFYbt78SVpDIq3zX5ep6KELqYFOHNwSk9uNyNdejyr+UZy2MCuoDC6bqcDrH0o+FVW2rrfGVl3+5Bm0PASOc1po2qqdcj80mTnMPPbfOOX1pslVKx+7gDi1v5+NWoE6NrV/BO7T/8Cd0IhZU5/jQzlZpbngljiCB+qeM+v2eymz2hi2sIMHU246PTqLhsdeNgP0I6/9RC6Zz7HEjrLxtBbXH7nmCy6l2tOGQSqshU4/xt8a0qDKcJgtoWJpsVdOxXY/dwAhv4+NWNuhtE8+pdXxOFlTnmqpJWJlFEleu9PrBGHiU5MtUWldwh/ehX/Vso1263EvWvXHtJtQNJjW2HVSJTlu9a2pIdGNE257KIHfa6ukNX6fHU6fNFVztt/cRpG+RALBYF+nqUuNaoyEWghJIPb7W+ve19FDVanGlCnrtKlWWG+/jHdOTjXIBcW9XV3TvXPz/4w81UO/aatTdRpu2dbbhzlnLwr0xQ2nrysvCrvZb34rar6HFuq6Wet4TnnVFzdy+HmoUS3ATcv6pRlPlX14LqCu4B9CvzhXj0mXLyaTnlgUxsJ2758fcMuMOWMo0xH1Du5C5xRaYc77juM5lZ9JW+1EjvpokVq1T7tDy3PY2M7dnUfPd3sLJMtSgPryGmlza5ojjlnvHMeJaSNHjgHpYQDfObDUFG3mNdt/6rL5YqP6ozg09+/eT9agE1BPc4/v6db7GPOdTbn3humgac8rTTY1kxbrPxwDaGp06SB2pbWmyqCyPwWTOiLdXV1W9p6tjQeehg7BOafGUXx9oTzz6XbKuRm1PjoOuc1P/FlZ+XGfJSqXjwJ1lEsJ3LvM63UltbWcruQFbzHOwh6zmO9b1Mdfca/KOcwiKehA9vGJ7ZeaArL22RrI22fJTvISmRmpPlEK+hMc660j4HMEkrt3AnVS9tvS39JBAjuFiqHhxvNxJTLkWLi+b87JAkpXK1Z0F99oonZ/X3bpG+U+C/Rg1siygv8yij398DceNRaug63UsXPc4h6CoVx+LJK5cUekPN3xf9mP8FlueVEFXBhq+vW1o8o0NEWwNkeCecxsYq9Kr/20x5krv9Kh5W8BqUef30sx9CQw9QD3uT6naU2McZYkG0Q/6KWBb2CQRqjR4nCy4i5j4mit0K1rWBIRUjbPd9ldu2q+JBPdDq2H2KmBQjPmc/krvq5fq/FO4YirvnRzw+DrqMV6lJiZdpxoiJfYVwA0ki+fQ/dfRT/nHlufAA2m/kKqyC/a2+/BICzWu5z2XoDdOGxRjva8jvIUTm3Qj7+zP2wa2p3H9Xbphuh7lGVFiXxkz53+jhG+EbFRuOF2R5U4KuyIda4N/Pvd7SNn4CJZrhSjPC0EdHlw8pTux9H/LLb+Qeh1QC1U3sjjl1CV7nDYoxryvY0WFeHtUh8jdn7ZhiBrrU1TvuWPLZVbpnIgK6kOgbvhQddASvfWPos1Jh7095ji3s6zWcT3WImx3kvjndpSC4+rucQ5BUU8AFid7fHVLhqTfTGYKmdi0IrPe3b+htZm2vW8JmwWfJ38DjsG+ou8/07IeB11B96WP8wRYrbvJjbAW4fG3jNWqfptw2VyDSjN70r1e7ziHoKhXH4sjrqqiAm3bgUtUqaZu0sL9tC7gGrLdRQNDxq3EFdsW3AIBdlxX7DLksSJbUG0XM/ewSTxNo67E4YFupD/Vy6mWXdi00mpc5sJufFy4YtOz216LCSWSNWjqfBgrPrno68G6bmL6v7VDu451Q21VuAIBdnre7N7lMRq7AbFdzK14YjOJ50e6keeGAOseRe1VvVyztgsPk3VlT6Bhl1/hTO44tAhy/uEiNaFsqZC96HgnXKyy66Py1B2RYKfHtoIYr8wG3tDjg677kXDdx8TAGzweeU5ZWurZWdWNtpundKO+chN2ZXJWp4xg92UFr4+wyLL7rsb259do70Qo3IhyZ8s01q3bA6/ZFJSxDT/PJb4uo6z3NLofuE55oq16cL74hJTLzsnTAQyZmd123VPLlsdAsXK1fj7Yvctjq6F1kKDtu9j58C6Xgu5Ut1GHZ1yVQwotT21COmvKSFHGfSrKqw+YuY3Zmia02uXgYNdBdvNaY7J1f9+EGjO84niUvHUa7riGYdd3tRw4jtaodiOScp9bx63KY5Y8jmmJIqe5wpl1S9sfpTIb/9/ayp29OUvbHtfHBmDRg2NRbjmJLveb1D9CQwtZ32xZqolHnJa1TkHlUjC4zBS6mv3HEapDUN0kJq4///nP8a1vfcssFUGKKqQRsuNf5tCUySAXsBJ5PY/FKZfrl3rfgkrvWz6A8WkeJ+L3THlM9hRVeKeBP4B+HvvZxtv4R0IQmFjTRGKgxFS5sch6sqypOVENmdX4uNADfVuLqXInUk/Ys0Y1Mzl6NM04W0vOiGCwAvqWr2DiCx6zYZcTj8m+Rz08p9G+gnfOXkPDZuOO2qNf67Ddiw333tZiqhqWGtxxGhqFbmxLJ0VN57h2IbK7vTGDTMBC0vmawR7K/124pLcFLR3f8nFcmsi7ZbaJhDKb94T3wDNUvub54J8aA7Rc2alGaiC4EefrofKErxF3CI7px6PG5xxXH/16105h2BkPu/yOGmN1XYH087mOb1zB1Ky3veWq5aokgmXuRwtTyTRSbiph404skMkEvAmUxyy6Oo/bcN10PoJeAd/y/nFMmXIc5Ulj9ryG4X04xlMZVB3k7Txebk+6ofswHR7uVKdSgQ6PgyPeRVFBfbjxPkY+IcFXx+qfO85NZtS1mjb08vodtfjwxDhmjdh61ipZt9TK+CxY2uP9UR5j9YYH7HfYgy7f4LL/fui33f/2u2rzSuU9skIdF+yP6zE+SpXIEcWJ53CRyqztx8Y9++P1mH7LsyLvHD9ENdty3/7yJLVqZlv2Mu409uj1PD7qnteyVskKRsCCBV7G73mMtdM5J/3+8XUj4Nqq1S5rJrhM0Pmm8814zBzb1fcjs6F6SGy28ODgIBobG3Hs2DGcOXPGrF0+hM5+FqobtgCSmKWaEKEzy5cdbLkmMaNbEBaXRN3C3/jGN/DDH/4QP/3pT1FbW2vWLg+UW1lYGrArk62qKhJWPRkq4XG2JYYajlAeJxFWYemTqOW6du1aswTMzs4qK/bSpUtmzV0ON9jqXUz/u4CCEIt6TUS/f+m8WykIwtJn3sSVOX36NH7729+aJUEQBEFYHszLbOGZmRm8+uqrIqyCIAjCsiRxcX3//ffxi1/8Atls1qwRBEEQhOVFouJ6+PBhHDlyBH/+85/NGkEQBEFYfiQmrq+99hrOnz9vloQw7vlvF/C94f8V/vLzlsNoHf4YTT82ywnAr3ZUWzxL/Q3dyuLW3t3wx/lHl0a8WvUxgyVyrYKwwCQmrjdv3jT/CVF8cxXJ6mTW+iqKRXM9UriKW2+Z5Yqxv4O6gPAH1E2AgqqHxaGkL1Elg/oW9d0gSPv71Wc/pxo3JRyDWRCWPvMyoUkIYzf+dhXw1ScvmWU/96yujxbesgj5puoCwF8Zmv38SsRXhpBA3NrkCH7ta6Hgd6Kjv1mdQGzVBSfwmUtBEBYvnmslsGuxpDin0LESoY57D9i8RX04e/zrNrSt8b9fyOfeQusUtI8/7qn+ekxJcU4XC35/shMY8V2/A39/1YpHGrxP691Lxhf7MiJvZzjOpRvD1MErFxUHMyJuLePLd3NOJcDOfXxUi14n3UBsS+1KLS3OKRMaW9TBfW9Z44tVyrDVGxKvlFHh2KyYmTDXVbBe4bwXbZ4tTrAgtipjbWesffi8sfGN5xPOp4I4voIgLEHLVbs7S4pzaoVTa9jcggn+RmhNG5puD9OxZoMSHBZfcxyH/0IbHg2Jp7kY1k6pFH4M3EELqxePNHCfnH/8HVUn/+jnF9bwvNWRYvibriyezrFGREkgo+PWGmGFF7vSFwOVP57O33d14m1y2d1Lz4De6qMgsksswYg7FkpYo+P+Krcuf93JiVdKP5+wBuKcOlbqgWf0ufJKUJ1j9QdH4mOramENj1urvwUdGd94vuFvapt/BUHwWLJu4XLinOowULTNhAYbOU9rnWNVOCkWX+dD22TZfc0xGtVpDKXHOV0sCj8Grqnr6FL35X2/lgT4ayeCR2H+ecTlrSEQ9cUlLm4tCTbHPHU/fk+oAAc+BSZL1rGsuewKOg2lxjklQsPfMSRkMXF/2Uru5igvvw6x1EiUo+OcGoJRnQxxsVVj49YawuMbLwD7+3FwogV7KoguJAh3I0tPXCuKc6q3eeOC3rEqIokd+Z9/odH/lwLRk5kKRZfzyHzT1uStT/xc4vLWwMLnC7oeICSkWmEkmDq0rnWiixgBt0L0qbIL6TSUTITIqagtcXF/AzGAfQSF0Y5zauBx3nxMTNmw2KrBCDWOaCurW3USouIbzz9sqXPAis7OBXJDC8ISYXHFld1vo6M4otxbRWLHWGSKjXNq7ccCo0QheGyEu9GBG5KFnl1aXposhN5kJh7vdMNoEbZV2Lqd8uiLD7X79sYM2Z0NaAlzhSviYmbSWhbKGGwhdePWMla+K8saTnzZYCdBC6+/08Au09JfB4mfzBQd91eHzWvBI1FWWmycUy2U0YTHVmWi4tYWdBIK4hsTpcb/VPVS76+eP85ba52HJfKCIPioCsvVdm/NRdDS8S9Hx3VUFo+yVtniClqwPGY4osYeVexG87MFyWn4FoWCMbi58MeD7MKI696+8i7liYkdyz811ula6MHYl/Z7snExMzUz/zaFWffcgUDgRFjc2mC+q/io7uQqfyehcJkpL86pEjkrFuzo6BGSCmaOuL/BeKV25zAuzqnhwKdTSGX2mGOdNB3CY6vGxa0NdhKiOw0ljMOyYKt/rGfeXWfBsXejrHhBWOYs7mxh7g1zIyRRZCJhyyFyRqsgFMN8xa3l8z4wvsReGxKEhWGRLFfzFRoR1kjUjFTKIxFWoWzMsMv8xK3tw1BHU8z7uoKwvFmS77kKgrB4sDdFva9b4nvFgrCcEHEVBEEQhIRZsu+5CoIgCEK1IuIqCIIgCAkj4ioIgiAICVPWmGt7e7v5TxAEQRCqk7GxMfPfwiMTmgRBEAQhYcQtLAiCIAgJI+IqCIIgCAkj4ioIgiAICSPiKgiCIAgJI+IqCIIgCAkj4ioIgiAICZOMuLauwafPPqR+lzZ+06xcPugINiUEoy4R/lC6P6A8BwifKz0TeYh+JQWjF+5iBtH/5nn0bjSLFbMbva/9AYNv6t/eF3ab9YvExsPYWw3XUc3s/J0qq/6dZnmhWKx0F5EExLUG72z6v3Dpdx/hgUMf4ZEL/2HWzweeYLi/N/zhpucHTnf+xDMaFlEdds4N1q04jn3nc8g8NUR7hDPwhg7y3dlpBfoW5h/TwGvBCQhZ3LYlSPMLz2FD7gQGn35Q/fa/etRsmS+S7hzchbCIvXYYxcbFX5L46hH9qvR+KxfX1nuxbvYWzt4wy/NJ72qkMYVTJBgsGuq3ECGvON38BC4Nm+UAx/f10LX0YF/E9nIZeGMPMrdOhcdz3X8KWWTQHWqVDqCtcQrjIqoLDDX+z67H5CEtNoOHLqP52d9hs9pGVt5Ob9vRLLBh59JuBBvTNcjnJs1SFXDhJ9i/ICK/hHn7B+r5O/K2WV4okkzXlLOqY0+/go/Rjq1VaBFX/IWm//5fHkLX7fEiLVa2xHYB5yfQsi2D1HQW2ZUZZFJ5ZH9F4tR8JBDYmS3GTcjxNhauvcHtHuya3bPqnCu2vmU+7oFxHLy5CXsyKbU9n/UHIXdjVCpYwPtxgINNP0/XadY6uMfyebc1qXVTZCUWWIjWdsbdh8/7FHDsfBp7nO3B2Jgx9+oQvGcX5/yJB8gW4mh+4Tx2p0cx+NKgt5ypwfRISKPCve9n6zD29A9w1qyKRe3f7j6L+ewrnoiwtdK1Tv9P+NNja28H3Ecbs/j4UAeGL+ilzS//AVudRzQ/hqM/+wnmkkvfMS5XcUbdC6fXidtuGv5lPvY7uTGszJh7CaYZcZ/xafqvqTC/2X39Ija4J7XS5PSoYZ7MtWND5PHRhOefSQ9eOvpZuOFeb/A+g2n679d/n+05r+y95eZAORumTpjn0c4D/zOgiHm+OI3YMosk/tkLpuldq4M5vmC9TfB5qx7KtFxr8I4ZY+1toKW2NvX/O61mcywpZDqo4T89RV3fDNLnDyKbN5smc8in0nCfqb1taLIsxoEHaEsqgz2OS/ik5xZtWpVC/iad02Av992fprS6tRCxtUtpp1Y5qXiuV9caZmHlTcP70EPLp6b5YfO2a1Em4SfB5mXenr4/4KBVwgrPyqY0mzrM9TankeL7YPHkbb/KIr9yteXipWvqaMLU+fLEse/RFmDikgjrAmNbctwgsdCeoUdw5X2FY4DN31+P1FS2JGG9RQ2w7q1b1pkSVlDja7Ydokawy3Gd6sYJ7nEnQI+qCzf43DA75zw6sR69RYxXnn1J78/3xo2wPr7ITgLRmHEs+IDVEXOfOk2+fm6gne1emno7nc9pS1y0qDRPePd5hoR098tWY50iYYVxb49cRSNdRzEehej8O4rhn+l7U8t0vl5bWLlcVMdKH8f3hS7Hw2GENU0C5m4vJm8HcYT3petX4ucc64oSXxOv8z8DCpXvlseF9rmVedE3PhpZZrGYa1K/wrLZvM1f1tECWgjnvXYL78DK7OtVJ6xMmeI6iycOfYQHzt2gf7/AEP9PvyeumM2RNCHNVuqv9wEseGSt9e/ndTlcZwEdvoSJfBqrzdgmi2neFYk+rF6prT9H5Dpdy4y35TFx0ZETvW/uS0te8lkcdKxaStsV4r3dyCCLY2GuV0XIuRQH0K/OF0ybIeHdliZr3Ig0E+w4sHXsXD+L7a3rnhj2PoKWVBluXRZ06nTswrFwV7KwADSrST6q0Y1qLEgQlRVTZGOihfhEqDXVfF89Pdonvcb3wjlM5mtQu5b+35lBIzW0Z0KtsN14uKWG+qovumNXbGWn0vPvqM67jeFR3Mh5nY+4+yyfZtSmrmLM6YwQZ6+QAKXXWAJKlqFTFp/PUD2tK7QAC5gr/1jMtEgNKuGyBJLLBeuw1RzHAtGIetSbDtF3mqgD8XYxlmFCrK2jfB+1BGoQnwU6hVFlVgnTuVk0dtH92x0dH0acQ+rJ5KsdrmhPtrxYlZPYKhpz/e/r6jE79TXeNMtzYo1dsmU59SlJj1qXI6lhjuP6rRTU89k7hE0rbdHTwhw6xKPEyAg0w4LpilMfHmmhtCwrkNN2xNIv4GFwujFCF0ybUWPD/nVsTaamx5XYqjSzp1zh9Yk9w2Lr5kk0QWsd+/up03EQEy27FmHylcCNRSqzA7UXHItrN+qpD3nrK69h9yzN4i29+cO2As2vBOtBKCb/ZpF3Ojs27Oq0j3u6+tya840rkFcyupNR1sQk6sRcuLogncJSqUBca/BQw5/w6WfFzw5WAqMsNG3tsVB66zRTN/PKxTqwvQUTZOG6ohciWC62GPF4ozXOWSjKPNnHW+b0Ui2P0BVFoNKNwUq7b2iIzu7gWeB8TbsyQPZdx9K1LWEt/oWW8Vzo+/BbzIzlCRAWlMkPLiNPVtBnjuW1swcbyGpylpUrqwxhVedt6gydJTv51Q0S9B7XpehLU1lh6/GwOo7do/b4F1sgNfM0qcoTk80vh4wDRhB3n5pJ3A4Tqlj4mHVody0byoeN66hDTRa+WVMec+Wfzm+MdGD/2+yq99y+qlyadkS8lsJWI513W3QnxxUS6qgVjEMXbXlbqOux8n3jYbST9Tz5gdUpjIXvlS1w6x5LQU12OoHpguvmYY04y5Yx5RlqdS0u5YtrGbOEPWuVrD0ELFjD8S9z1Fjswaabx3yzb23Lr4D945hyxmKfT+Mcj2G6YhsQ5cDy8X3H1Kxbdxx39IglkIRyVTeh22w/ORSQYeXu1cfvwiV9fcP7cCwLZJ4353ye7taZlFUg9jEWeQx9Q5vQNH2ucIYy318RVq8wD/AsxhF47j6fkA5ia6aG/truwCLfyVTnvYENz4YcRw3T0Wy9lWY9WVMmTTpumGclq+NeJIvaP+519iU9frbbOZZ+lb+HOIgzWePuo/O1506EjINGEHefCm2lOOf2GnOncdcTdpzt+l4s96w6hvaha3LHrCsgOv/4enQ6ysWtyoHLyIyFq/u074N+ltWmzpve4W2zROvs6TElzGr9xhmV1z7o3GNT1jPmCpMRKuWCJvFWeWxfj5Xvatx7vi1pp8ycH3dEiut0euOt/OPnujpniJc5W/ibePP/acMDU8XOEi4eNQO2ZSJ2luzdT2CWdBB3spQ1puvA23iiVXAGsSAIwqJRvbN654uSxZVfveEZwmoi029vFD/eWgxKNHgiUPLvjC41Yl+z8VnCfiKPE+Yd7kkLgkB14ekHzX8Ga64BW9XzwR+vfIC3/rnfLC0+Fb/nmghKMPh9UvO+6zIXVo15J/jXdn6wRduG8TCL1YX36UaT5OWSQb16ERw7M/jeZ10g2O3GM19DiX3n8G5Cv8YUPnYZeF9TCEcJqvP+9fLLs+oQV0EQBEG4i6joVRxBEARBEAoRcRUEQRCEhBFxFQRBEISEEXGtFJ6MFXw3Ngl45rT17eT5IBgnlmca6/d89feWEwvnF3cv85V/i0HRZcaTzoIhDHWeF7xHrfY16/n8weN43YKEXRQEoRREXCulyE8VlooKNmB/bzhRvGAFdiQf/qAH1Ic6+MMWsD7uUSgGSoiLbNRj72We8i8cfd8FweMTEqiiyyz0a2M6zwu+1KX21V/iUucPhj7k0IMruyUgviBUGSKuFTJfIljw3eAECY8Tqz/L6H7vmeTO/Z6y+uqTv1Ev5fri9p3fTkQYhV/D4mtIIq+LzhPuUAS/NhbMcwfV+fC+Zlb4HWwOnG9FXBIEoSpYeq/isJURFiOVCI3Jyv/yMXHxXN33bA2+2Kps7ZAYORs5uo719ShOs+3TkFiuTOC8oTFfQ+E0g++4WsTkQcG9BN935WPniBMbpPDDFDpP0ueddJ13azX+WLnx9xKbf3H3WRZ8nYXvCQ+8cRKr3zXXF5mmuQ8nFrHean0la+779J7NYB4RZZSLB99X2Be9dDlx1Kfl/cUzQVh4lpTlqlyRTgxU83MaW9V4gUTRrD813YRNZvxKWUeR8VypYVJfPPLOGRSRlgknlutB9R3ibtcF5w8C4IMbSw5Y7pzTjuc6F2GRdhxU4x8RJ1YJq3Uv/I1ln/uR7qeMOLFsMXH+6W8v8487G8bKUmOmLFhemsh0U84Y4u5lrvyLus9yYevQiUxEz4se3+RrMNcXmya7bVPIbEvjnNrOcYib0OY8CzH3WfhsFrp/lfU8XzF4F9QzIAgCs4TEdQDdHFnGjpTjQI1i90ovXiujot24AkpExXMl6yOXp0bz+eAEE9pvaFfAfcoh8azA6MqVF9agahGDHdidP+sYdu1hRI5DUkcgJk7swHbOIC/gQUGwAyUAMeHzQtERjLJ254NEB+b6OM0Upe4ENhglqzl32rq+uDHVyPyLv8+yoWsBlzt1CFbTFannwxXcOdJU18r54Gw/jn09liUddZ+U1qZGsnDdZzO8Q8EdmNIjI82Fvkb5FKYgLDxLR1z3tqEpOJnDUDhuZ2K4qgk58fFc3Qao8xjwFAuEJ7KFY2iBMG+RwqEj3fgEqTPcXRhG4f0YQsTIE9Bg0HZ9377rjxO6SPheAmm612fGaU/b9+l33UbeCxMpSHH3WT7qWoiBR4FL75JwrlxN/7cg544zx6TJ1xoWhcgQeZ/qOOu6+TkO6VAceKYCl3fItQuCsLgsHXFVVkQLHglYly7UUDouQ2VxIotTqrHSQudZClGuSBZZdvWZYO0G2/odeKPbF+bN36CS5eN7DcN/ngLYBUmWXuGrFwFRZ7erbyZrVJxYxktTTVpKhcw+LRXVqfELYLDT4VryIcTdS3z+xd0nweei/CtllqzqVK3qRtuX1NEavk5yBKxeRXnkPgvRafK1+jtafmLLzHk2eT2P5wY7FOpZKPScFEtUx4Pd0QUhFAVBWBCWjrgGY6RaDWswJqsvZF2wV+9b5jFV73w8lsjjq44FceCZU5iyxhrVuJnlYjt+cQJ5d3sbxt1JIwfQz+N126xzl/DO6oFPp1RMW3Ucj9s6acbGiT2OSxN5N81NN7PUgJfqAi6k0CKzLWTqkPyaL8hcq/r5G/PIeyEi8y/2Pv3ECXsYTStzptM1RU9BBpmVxhsSm+bcAe0j7zMYa5hd6qGWfLmWpxkusTsegiAsOvLh/rsVtoYKZp+SdRgXJ3YpwVYgi1VshKC7HW/Cnf+1Ko07kUrGXAVhwVlSs4WFGHyuSD2hqnD26QGcYuts+1J2FHIHwViBy1pYWTzD3lem0ldf2tIfCRFhFYTFQSzXuwhlqTjvUvre1bVhayfmHVphScACugvHQi1WQRAWHxFXQRAEQUgYcQsLgiAIQsKIuAqCIAhCwoi4CoIgCELCVCSuzqzEsA8hCIIgCMJypSJxPb6vp/BD7YIgCIKwzEnGLVzy92oFQRAE4e6lcnHlD5OHfs5NEARBEJYnFYur+vasIAiCIAguFYsrj7ueAn98XaJvCIIgCAJTobjqqDJtn3Icz+X9nVdBEARBcKhMXHsfQUuq8rBmgiAIgnA3UZm48mSmkCDNgiAIgrCcqUhceTJT/qa8hCMIgiAINhWI6wC6M8DERXkJRxAEQRBsyhBXPYlpdLQb6ewxiQkqCIIgCAEknqsgCIIgJExlE5oEQRAEQShAxFUQBEEQEkbEVRAEQRASpqwx1/b2dvOfIAiCIFQnY2Nj5r+FRyY0CYIgCELCiFtYEARBEBJGxFUQBEEQEkbEVRAEQRASRsRVEARBEBJGxFUQBEEQEkbEVRAEQRASRsRVEARBEBJm0cW17fFt2Pr9b5ulYvg2vrd1G7Zt0z/fsWu/h63BdUmizt+BNrMoCEuLQfS/eR69G81ixexG72t/wOCb+rf3hd1m/SKx8TD2VsN1VDM7f6fKqn+nWV4oFivdRWTJWa7f/v46rPqPL3D69Gn1O/PBH80WQagCTAOvBScgZHHbliDNLzyHDbkTGHz6QfXb/+pRs2W+SLpzcBfCIvbaYTSbxbsbfh6oLlXp/S45cf27e/4Gf/3Ln8xSgM//BWdEcIVFgyr7s+sxeUiLzeChy2h+9nfYrLaRlbfT23Y0C2zYubQbwcZ0DfK5SbNUBVz4CfYviMgvYd7+gXr+jrxtlheKxNNlr8kOYOqqWa4+yvv8IbtHW+/Bl6fPY7xguQ0d22rxl9w9WJX+G7X7X3P/6hM8dgWv+TuzQNjbv/39rfgHcxyQxxcmjeAxmvDt+Wuncf4T/T/D22r/chP3pFdBnfmvN/GvZ/4FzhVFpalQ92aOUwS2C4Kh+YXz2J0exeBLg95ypgbTIyGNCluxz9Zh7Okf4KxZFYvavx0ps5jPvuKJCFsrXev0/4Q/Pe7d70CjWQJm8fGhDgxf0EubX/4Dtjbp/5Efw9Gf/QRzyaXvGJerOKPuhdPrxG03Df8yH/ud3BhWZsy9BNOMuM/4NP3XVJjf3BC/iA3uSa00Ob2dwGSuHRsij48mPP9MevDS0c/CDfd6g/cZTNN/v/77bM95Ze8tNwfK2TB1wjyPdh74nwFFzPPFacSWWSTxz14wTe9aHczxBeutunYlg8GNM0Vez8IyT5ZrCqtq7uBf2XV75SaQbnDHKZUIwnPrfmEbod/twD/c86W77fQ1YM3j+sjx9739WYz1Pp7I6e3/ipt/NSsCpNIrcOeK2Qer0PBdsyEmTS2sznH0o3uJOL0g+Cw5bpC48p+ZAlbeVzgG2Pz99UhNZUsS1lvUACuL2LbOlLCCGl/HWqZGsMtxnerGCe5xJzCtDtJwA8UNs3POoxPr0VvEeOXZl/T+fG/cCOvji+wkEI0Zx4J/BR+jHVudcbiY+9Rp8vVzA+1s99LU2+l8ebPCRYtK84R3n2dISHe/bDXWKRJWGPf2yFU00nUU41GIzr+jGP6Zvje1TOfrtYWVy0V1rPRxfF/ocjwcRljTJGDu9mLydhBHeF+6fiV+zrGuKPE18Tr/M6BQ+W55XGifW5kXfeOjkWUWi7km9Sssm83b/GUdFNBInPwsdv9FYp7E9a+4+X+MZfj5v+MvuAd/u5YX2lD7d7RtOtzua6ulPszfrXEnK21roOVv/i2SmJ7019xV/Mvn/N8f8e//Adzzt/qscWl++74V+Js/fWmOE4RiaKbGXFsTkY0FCaKyYopsHLQQnwi1pprvqyeBO+k1vhfOYTJfg1qubzszaKSG9kyoFbYbD7fUIEWNqB4Dps4AWdmp9Pw7qvPZ1431chQ3cl7nI+4+y6cZtamrGHM6I8TZKyRA6TWWgJJl6JTF5zPIp+oKLcAC5so/FjMtUoNKuCyB5HLBOmw1xw0q664e9aZD9J0m6kC8vYCW2No6yvdRy5IdxGeBTmFUmVXCdG4WjV10/3ZHx4cRZ189oc6SGl4pvjO3WFTdmCu7dF0rkn+W+3a+WIw0hbsPbixSmR2oveBYXLtRnwZufeU17J6lWQ2Ng20Flmg9CEQx+TeLvNPZsWFXp33c0wE37TJg8tUOfe/s2uVORjETk3b2YEOqBhueNR0THg5JtWM3/V9tM5ErEFfHGv02vvd/22OScfwJf/nr32DFfdpq5LFOexz1T3/5K1INC/uqS1yaf/z3v5BVW2u2taHDN/YqCH4mP7iMPFlBnzmWl2oIvGV2I5YjrOq8TZ2hs2Qnv7pBgt7juhR9aSorbD0eVsexe9Qe/2ILhBqpeZlU5YnJ5pdDxgEjiLtPzSRuhwlVLHzMOrS77m7Kh43rkJ8gC9+sKY+58k/nN0Y6sP9tdtV7bl9VLk07IsSArUY677boTo5rHVNHrWAcumjL20Jdj5XvGw+jnaznyQ+sTmEsfK8sdtY9loKa7HQC0wXXzcMaAcvWTIxyf5YbPFmPR+WUJ66f/wu+/NPfYFUru1L/Afd89QU1KsXwR/zL/+Ex2H9QLlge6/zXnDeK+ccPzuCLP6WwxnHR0q+4d1add1//AatI/VIN+tgOZ1w1htg0Pzlvbbsff7lS7H0KyxKerToCz93nE9JBbM3U0F/bHVjkO5nqvDe83rp9HDU2R7P1Vpr1ZE2ZNOm4YZ6VrI57kSxq/7jX2Zf0+Bn3+p3zVt77H8SZrHH30fnacydCxkEjiLtPxVGy7q665/Yac6dx1xN2nO36Xiz3rDqG9qFrcsesKyA6//h6dDqqwVflwGVkxsLVfdr3QT/LalPnTe/wtlmidfb0mBJmtX7jjMprH3TusSnrGXOFyQiVckE7lp99PVa+q3Hv+baknTJzftwRqX5XbylIsHRBEARhnmFxt2eR3/2IuApCQvzXf34X6ftKcsgJwl0Ju2x9WHMN2KqeDz6++P9i+OA/mqXFR8RVEBYZ9epFcOzM4HufdYHQ72SyCzuEkHcO7070a0zhXaXA+5pCOEpQnfevl1+eibgKgiAIQsJU3as4giAIgrDUEXEVBEEQhIQRcRUEQRCEhClrzLW9vd38JwiCIAjVydjYmPlv4ZEJTYIgCIKQMOIWFgRBEISEEXEVBEEQhIQRcRUEQRCEhBFxFQRBEISEEXEVBEEQhIQRcRUEQRCEhFma4rr3CEZHR3Fkr1kumj4MnRzF6Mkh+k8Q7kI2HsbecoNWh6HO58TcNPE/FxP+GDxdS+VxZ+9eOBBE2YHLK2Cx0q1WxHKtCC3WpYu8sJThqDFukGcryLXCNP76t9Qbmt3o3cmBsx9UIcQGn16AqCacf8E8FXyo588Ngn734tazkOdBC7n5VWleLE1x3d+Pzs5O9O83y0VzHPt6OtHZs4/+E4QyoMZ/d8tlHFVi8yCOTqzHbrdyD6JfxazU285MrcPWJd0INqM2NYvbn5vFauDtH6i8PfK2WRYKOPsSP38/wFmzvFAkmS6L5+70KI5mZ80aC6qDW3FCPQeDT5/AdNOOqvRklP+FJnbNbvOCUOazB9GzjyVrAEdGNyH3qx7sG+YtgWU+7oFxnEI3uk2wxKnTjlDyvt3wzjqFU539OKD+D27LI+umEU/f0EnsyaTMEjF9Cp3P6LPGp0kE7pPhez2GXf5zKqxr6h3CyeczcPfIZ3HQiDpfzy6cw0RLN/Qpir8XYXHpfe0PqL3gNO5k2b32Ijakrqog0AWNClthG2dw9Gc/waRZFQvv78a/pMeULEZHRPwxXwPpsev22XbvWfNt98clLS4+bEQsUyeWq0qvDmNOGr5lPjaD29l6bDAxYQvSDL3POdJ085pXhsQGDeSBnSbn3XdyY1iZMdvzY8WXSWT+mfVWfFtVRmnv3P64uMFnxL4fwr0mPm8nbrv3Zy0jWM4a95rsPAi7x8jni9OYo8yiCJyzIN3A9qhnwX7WbVQecmc2prw439tzRV7vAlKm5dqHoY40CQJZgWRB8k8La5E0dqPtU3Ps6Sk0dThjoAfQb87Hv4PZNDYNOaOj9raDyObN6iI4vq/HPSen5ycmTRbIbd59HuRESZj5XvU59XVw50Afbwnk8D70WOc9dSuDbst9nMp0I33eOS+Q2T5gtgjVjGfJcYP0Igkt9ZxRj/qQscjNreuQnzgX2Sj4UI1MPYmGtnpt60w12m5PnaxlagS3Oq4y1aCux6Rz3KEx6qo5cAPODbNzzlcw2fJcEeOmgzii9ud7YyEzxxcdJH0dNjjWPV0PMj2eezzyPk2aI1d1A222eWkexfDPeB1fU4BgHtA+tzIv+qyZxoyz/RV8jHZsLcrSics/vl7LaqL7soWVl9nycu5xcASWF8MIa84r08EY8XC58BPsp32VNceibo51RcVsV3kYROW751XhclnZZY+hx5RZHMaT4JzT3yzTfW70l3XyAjiI7zTNYvKD6hJWpkxxPY7rt1LIPD+Kk674lQBZcaccly67eF03rZlwNKp/bBmmVvmtxuQpMc2Vq01HYC7YIvbOy1Z6+n7rSBJpx619/OIE8kWfV1h01lJjrqyJ8N42wz1ubmyHi2xMlBBnXw8Z09yN+jQJ3GlP2CY/uIx8qk5ZU83fX4/U1Gj4WOjGTWhO1WDDs874FFtKNahda7bPG3S9bxuxuPAFblmdj+j7rIC1dYE8GMRn1Ideed9us8xNjpPmUdzI+bdFMmf+kcAqkaJtLFyWQPJ9goTXHRdk6y29xnSI+LxkyRbdWamc5vvqKQ9OepbzBer05e17iS6z8uG81vm394WI/K7Izc+dlB1YmfTzlBBlj7keeEZbXeweVQLyRuWWV9/QLmSQxUFj7SlLcZ6JTXP4EibyuhOhhTeHU0WO1w680Y0mdj+b854q6G4LS5Hb1CBt6GIXqHHbbVyDlbiBG1blLsaVtWDYVqD5ldeQLVOKyb/8LFlshWLErk77uKKs07sMPQ77IIbxnO5kJDYHQVv/zRPV5w52qHhCk3KP/iobsLxSSJvpXUpk9L9z0rQqBdy6bsRrAN0FY5rJE5vm3m5kbnkC2WmPxSrYgg9YpIo+rF5Jde6mcUH3DmFTwWCSx8D2DDBxqSjRFhaXDyfYJZd1LYDN29rJarKWX/5DWcJ69spVpEJdcab3v81rlOw0J7+6QQ9xxhw3iH57TI4tkFQ7eqOshopwxIQauZ2F44BRRN+n4fMZ1yovGj6mqdNzcW48jPYkXIVz5h/n93pMvt2B/SM3sGGnN6t1OjeLxq6I2eLKalyH9sjzehbl5pcLx6FVmTtWcJHwMb5839mj5gp8VnRHi4dBSBzLnMk9+WqHdhsHr5vd1XTe0iYk6SGZahZWpswJTfGTi+wJRPnsKUy0bAJ+bbbzBKGOnDu5x4dvEhCdM5tDZtW4NfnIgV25u7xzloKZUOWeMzZNTmePmXTkEJjwFDzenrjlToSaovOm0UJ2Po/Xxk+wEqodNQbqFq03oSU4qcYharJGEP8EGPs4M0bnnDgwacS7Hh4fHUXtsxl85ptsZF9TxOSrULgRsyfXeNh5MD1yAuhy0gweU3iO6PvUhOcvnycoNHy/5rxqTDFsso4+nz3hJbgcS2T+6etZGZg4tbXJy1/ffRD+yTyB+7HK1M6ffPYEJls6ARJwrwz8z4N73kAeKCLO658UNneZudcbePZ8cF6RSA672wP36EvTYK45+AwEnxGFeRZCt5X0XC8MSzSeK4u7PSO5eJSwrTpXnJgVdAS02LZMODOjy6OkaxAEQVgKsFCWMjv+LmdpiquyCuG3IIuiNHFUItgyYYmrttjhvjpUHiKuSxd2YQmCQHXh6QfNfxplqfOsdrIuF6Oe/PHKB3jrn/vN0uKzdMTV52Yt5b3QgGu3JBdsoVvYe5+3fERclxtB95hNiKtsAQi6LG2KfsdxiRPuXjTY7n4hEt9zFOcyXoYsUbewIAiCIFQvS/Pzh4IgCIJQxYi4CoIgCELCiLgKgiAIQsKIuAqCIAhCwoi4CoIgCELCiLgKgiAIQsKIuAqCIAhCwoi4CoIgCELCiLgKgiAIQsKIuAqCIAhCwoi4CoIgCEKiAP8/B5XS23J99GQAAAAASUVORK5CYII=;" parent="1" vertex="1">
                    <mxGeometry x="70" y="720" width="471" height="221" as="geometry"/>
                </mxCell>
                <mxCell id="28" value="after all execution completed GEC pop/ Remove from stack" style="shape=callout;whiteSpace=wrap;html=1;perimeter=calloutPerimeter;fontSize=14;gradientColor=none;direction=west;" parent="1" vertex="1">
                    <mxGeometry x="695" y="600" width="120" height="140" as="geometry"/>
                </mxCell>
            </root>
        </mxGraphModel>
    </diagram>
</mxfile>